<?xml version="1.0" encoding="utf-8"?>
<svg xmlns="http://www.w3.org/2000/svg" width="133" height="38" viewBox="0 0 133 38" fill="none">
<path d="M132.102 34.1909C132.102 34.6914 132.004 35.1871 131.814 35.6495C131.623 36.1119 131.345 36.532 130.993 36.8857C130.642 37.2395 130.225 37.52 129.765 37.7112C129.306 37.9024 128.814 38.0005 128.318 38H4.47651C3.47277 38.0011 2.50971 37.6004 1.79913 36.886C1.08855 36.1717 0.688625 35.2022 0.687317 34.1909V3.81412C0.688624 2.80227 1.08839 1.8323 1.79883 1.11718C2.50927 0.402064 3.47232 0.000262646 4.47651 0H128.317C128.814 -1.70356e-08 129.306 0.0986624 129.765 0.290352C130.224 0.482042 130.641 0.763004 130.993 1.11719C131.344 1.47138 131.623 1.89185 131.813 2.3546C132.003 2.81734 132.101 3.31329 132.101 3.81412L132.102 34.1909Z" fill="black"/>
<path d="M29.5463 18.7886C29.5177 15.5832 32.1511 14.0237 32.2715 13.9511C30.7801 11.7601 28.4685 11.4607 27.6562 11.4369C25.7147 11.231 23.8315 12.6075 22.8425 12.6075C21.8337 12.6075 20.3108 11.4568 18.6693 11.4906C16.5571 11.5234 14.5811 12.7557 13.4973 14.6692C11.2607 18.5708 12.9288 24.3044 15.0716 27.4582C16.1435 29.0037 17.3961 30.7273 19.0355 30.6666C20.6394 30.601 21.2386 29.6372 23.1741 29.6372C25.0919 29.6372 25.6545 30.6666 27.3265 30.6278C29.0479 30.601 30.1317 29.0763 31.1661 27.5179C32.4048 25.7485 32.9022 24.0041 32.922 23.9146C32.8825 23.9007 29.5799 22.6296 29.5463 18.7886ZM26.3879 9.36223C27.2505 8.27518 27.8408 6.79627 27.6769 5.29549C26.4283 5.35118 24.8669 6.16572 23.9677 7.2289C23.1721 8.16578 22.4615 9.70137 22.6451 11.1455C24.0476 11.2509 25.4877 10.4324 26.3879 9.36223Z" fill="white"/>
<path d="M52.778 30.4497H50.5365L49.3086 26.562H45.0407L43.8711 30.4497H41.6888L45.9182 17.2141H48.5299L52.778 30.4497ZM48.9385 24.9309L47.8281 21.4748C47.7106 21.1218 47.4895 20.2903 47.1658 18.9815H47.1263C46.996 19.5444 46.7878 20.3758 46.5025 21.4748L45.4109 24.9309H48.9385ZM63.6333 25.5605C63.6333 27.1836 63.1961 28.4666 62.3206 29.4084C61.5369 30.2468 60.5627 30.6655 59.401 30.6655C58.1464 30.6655 57.2443 30.215 56.6965 29.3119V34.3195H54.5922V24.0428C54.5922 23.0233 54.5655 21.9781 54.5142 20.9059H56.3649L56.4823 22.4187H56.5218C57.2236 21.2789 58.2886 20.709 59.7178 20.709C60.8351 20.709 61.7678 21.1536 62.514 22.0437C63.2592 22.9358 63.6333 24.1074 63.6333 25.5605ZM61.4895 25.638C61.4895 24.7091 61.2822 23.9433 60.8657 23.3396C60.4107 22.7121 59.7997 22.3978 59.0338 22.3978C58.5146 22.3978 58.0428 22.5728 57.6213 22.9179C57.1989 23.266 56.9225 23.7205 56.7932 24.2835C56.7355 24.494 56.7027 24.7106 56.6955 24.9289V26.5212C56.6955 27.2144 56.9067 27.8002 57.3292 28.2796C57.7516 28.757 58.3004 28.9967 58.9755 28.9967C59.7681 28.9967 60.385 28.6873 60.8262 28.0737C61.2684 27.4581 61.4895 26.6465 61.4895 25.638ZM74.5271 25.5605C74.5271 27.1836 74.0899 28.4666 73.2144 29.4084C72.4297 30.2468 71.4565 30.6655 70.2938 30.6655C69.0393 30.6655 68.1371 30.215 67.5893 29.3119V34.3195H65.485V24.0428C65.485 23.0233 65.4583 21.9781 65.407 20.9059H67.2577L67.3751 22.4187H67.4146C68.1154 21.2789 69.1804 20.709 70.6106 20.709C71.7269 20.709 72.6597 21.1536 73.4078 22.0437C74.152 22.9358 74.5271 24.1074 74.5271 25.5605ZM72.3823 25.638C72.3823 24.7091 72.174 23.9433 71.7575 23.3396C71.3025 22.7121 70.6935 22.3978 69.9276 22.3978C69.4084 22.3978 68.9366 22.5728 68.5132 22.9179C68.0907 23.266 67.8153 23.7205 67.686 24.2835C67.6219 24.546 67.5873 24.7598 67.5873 24.9289V26.5212C67.5873 27.2144 67.7995 27.8002 68.22 28.2796C68.6425 28.756 69.1913 28.9967 69.8684 28.9967C70.6619 28.9967 71.2788 28.6873 71.719 28.0737C72.1612 27.4581 72.3823 26.6465 72.3823 25.638ZM86.707 26.737C86.707 27.8639 86.3161 28.7798 85.5394 29.487C84.6846 30.2587 83.4913 30.6456 81.9614 30.6456C80.548 30.6456 79.4149 30.3711 78.5601 29.8211L79.0467 28.0538C79.9696 28.6048 80.9832 28.8793 82.0867 28.8793C82.8803 28.8793 83.4972 28.6983 83.9374 28.3393C84.3786 27.9792 84.6017 27.4979 84.6017 26.8971C84.6017 26.3591 84.4171 25.9086 84.0549 25.5416C83.6907 25.1756 83.0886 24.8344 82.2427 24.5211C79.9429 23.6569 78.7921 22.3928 78.7921 20.7299C78.7921 19.6438 79.1987 18.7547 80.01 18.0595C80.8214 17.3653 81.8972 17.0182 83.2356 17.0182C84.4309 17.0182 85.4268 17.2281 86.2174 17.6468L85.6894 19.3753C84.9452 18.9695 84.1052 18.7666 83.1656 18.7666C82.4233 18.7666 81.841 18.9506 81.4244 19.3166C81.0741 19.6438 80.8964 20.0427 80.8964 20.5161C80.8964 21.0382 81.0987 21.4718 81.5014 21.812C81.8508 22.1253 82.4885 22.4664 83.4103 22.8324C84.5415 23.2919 85.3725 23.8269 85.9046 24.4416C86.4405 25.0562 86.707 25.823 86.707 26.737ZM93.6823 22.4972H91.3628V27.1309C91.3628 28.3094 91.7714 28.8972 92.5907 28.8972C92.9667 28.8972 93.2786 28.8654 93.5254 28.7987L93.5836 30.4089C93.1691 30.5651 92.6232 30.6436 91.9471 30.6436C91.116 30.6436 90.4666 30.388 89.9977 29.8768C89.5309 29.3656 89.296 28.5093 89.296 27.3039V22.4932H87.9141V20.902H89.296V19.1545L91.3628 18.526V20.902H93.6823V22.4972ZM104.127 25.5992C104.127 27.0662 103.71 28.2706 102.879 29.2125C102.01 30.1822 100.853 30.6655 99.411 30.6655C98.0193 30.6655 96.9128 30.2011 96.0877 29.2731C95.2625 28.3432 94.85 27.1716 94.85 25.7584C94.85 24.2795 95.2764 23.0681 96.1262 22.1263C96.978 21.1834 98.1249 20.712 99.567 20.712C100.957 20.712 102.073 21.1775 102.918 22.1064C103.725 23.0074 104.127 24.1711 104.127 25.5992ZM101.946 25.648C101.946 24.7738 101.758 24.0239 101.382 23.3963C100.941 22.6385 100.309 22.2595 99.491 22.2595C98.648 22.2595 98.0015 22.6385 97.5613 23.3963C97.1843 24.0239 96.9967 24.7867 96.9967 25.6878C96.9967 26.563 97.1843 27.3149 97.5613 27.9404C98.0163 28.6983 98.651 29.0772 99.4732 29.0772C100.278 29.0772 100.908 28.6903 101.364 27.9215C101.751 27.2791 101.946 26.5242 101.946 25.648ZM110.97 22.7707C110.751 22.7309 110.529 22.7113 110.307 22.7121C109.567 22.7121 108.994 22.9925 108.591 23.5574C108.242 24.0547 108.066 24.6833 108.066 25.4421V30.4497H105.962V23.9115C105.964 22.9096 105.943 21.9079 105.901 20.9069H107.734L107.811 22.7329H107.869C108.092 22.1054 108.441 21.5991 108.921 21.2202C109.36 20.8891 109.894 20.7098 110.442 20.709C110.636 20.709 110.812 20.7229 110.968 20.7478L110.97 22.7707ZM120.381 25.2263C120.387 25.5486 120.361 25.8707 120.304 26.188H113.991C114.015 27.1309 114.321 27.8529 114.907 28.3502C115.439 28.7938 116.127 29.0165 116.972 29.0165C117.907 29.0165 118.76 28.8674 119.527 28.566L119.856 30.037C118.96 30.4308 117.902 30.6267 116.681 30.6267C115.212 30.6267 114.059 30.1911 113.22 29.3219C112.383 28.4516 111.964 27.282 111.964 25.8171C111.964 24.3789 112.354 23.1805 113.135 22.2247C113.952 21.2043 115.056 20.6941 116.446 20.6941C117.811 20.6941 118.845 21.2043 119.546 22.2247C120.102 23.0333 120.381 24.0358 120.381 25.2263ZM118.375 24.6763C118.39 24.0467 118.251 23.5047 117.966 23.0462C117.602 22.4555 117.041 22.1611 116.29 22.1611C115.602 22.1611 115.042 22.4485 114.615 23.0253C114.265 23.4838 114.056 24.0348 113.992 24.6743L118.375 24.6763Z" fill="white"/>
<path d="M44.4332 12.5299C43.8478 12.5299 43.3415 12.5011 42.92 12.4524V6.0534C43.5095 5.96164 44.1052 5.91642 44.7016 5.91814C47.1149 5.91814 48.2263 7.11459 48.2263 9.06491C48.2263 11.3146 46.9135 12.5299 44.4332 12.5299ZM44.7865 6.73865C44.4608 6.73865 44.1834 6.75854 43.9535 6.80628V11.6706C44.0778 11.6905 44.3167 11.6995 44.6523 11.6995C46.2335 11.6995 47.1337 10.7925 47.1337 9.09375C47.1337 7.57905 46.3194 6.73865 44.7865 6.73865ZM51.6898 12.5787C50.3296 12.5787 49.4482 11.5553 49.4482 10.1659C49.4482 8.71781 50.3484 7.68546 51.7667 7.68546C53.1071 7.68546 54.0083 8.66013 54.0083 10.0893C54.0083 11.5553 53.0795 12.5787 51.6898 12.5787ZM51.7292 8.44729C50.9821 8.44729 50.5034 9.15144 50.5034 10.136C50.5034 11.1018 50.9919 11.8059 51.7194 11.8059C52.4468 11.8059 52.9354 11.053 52.9354 10.1162C52.9354 9.16138 52.4567 8.44729 51.7292 8.44729ZM61.7643 7.78193L60.3085 12.4723H59.3599L58.7569 10.4354C58.6069 9.93718 58.4821 9.43164 58.3828 8.9207H58.363C58.287 9.4319 58.1429 9.9441 57.9899 10.4354L57.3484 12.4723H56.39L55.02 7.78193H56.083L56.6101 10.0117C56.7344 10.5428 56.8391 11.0441 56.9259 11.5175H56.9457C57.0217 11.1226 57.146 10.6293 57.3286 10.0217L57.9899 7.78293H58.8329L59.4655 9.97394C59.6185 10.505 59.7429 11.0262 59.8396 11.5185H59.8673C59.9344 11.0361 60.04 10.5239 60.1831 9.97394L60.7487 7.78293L61.7643 7.78193ZM67.1239 12.4723H66.0895V9.779C66.0895 8.94954 65.7736 8.53382 65.1508 8.53382C64.5379 8.53382 64.1164 9.06491 64.1164 9.68253V12.4723H63.082V9.1226C63.082 8.70787 63.0721 8.2633 63.0435 7.78094H63.9535L64.0019 8.50498H64.0305C64.3089 8.00372 64.8735 7.68546 65.5061 7.68546C66.4833 7.68546 67.1249 8.43834 67.1249 9.66364L67.1239 12.4723ZM69.9764 12.4723H68.941V5.62971H69.9764V12.4723ZM73.7478 12.5787C72.3887 12.5787 71.5063 11.5553 71.5063 10.1659C71.5063 8.71781 72.4064 7.68546 73.8238 7.68546C75.1652 7.68546 76.0653 8.66013 76.0653 10.0893C76.0663 11.5553 75.1365 12.5787 73.7478 12.5787ZM73.7863 8.44729C73.0391 8.44729 72.5604 9.15144 72.5604 10.136C72.5604 11.1018 73.05 11.8059 73.7754 11.8059C74.5039 11.8059 74.9915 11.053 74.9915 10.1162C74.9924 9.16138 74.5147 8.44729 73.7863 8.44729ZM80.1437 12.4723L80.0687 11.9322H80.0411C79.7252 12.3668 79.2643 12.5787 78.68 12.5787C77.8459 12.5787 77.2537 11.9899 77.2537 11.1982C77.2537 10.0406 78.2496 9.44185 79.974 9.44185V9.35532C79.974 8.7377 79.6492 8.4284 79.0077 8.4284C78.5487 8.4284 78.146 8.54476 77.7916 8.77649L77.5814 8.09124C78.0117 7.82072 78.5487 7.68546 79.1794 7.68546C80.3954 7.68546 81.0093 8.33192 81.0093 9.62584V11.3534C81.0093 11.8268 81.0301 12.1938 81.0765 12.4733L80.1437 12.4723ZM80.0016 10.136C78.8527 10.136 78.2763 10.4165 78.2763 11.0819C78.2763 11.5742 78.5734 11.8149 78.9859 11.8149C79.512 11.8149 80.0016 11.4101 80.0016 10.8601V10.136ZM86.0323 12.4723L85.984 11.7194H85.9553C85.6582 12.2883 85.1588 12.5787 84.461 12.5787C83.3387 12.5787 82.5077 11.5841 82.5077 10.1848C82.5077 8.71781 83.3693 7.68447 84.5459 7.68447C85.1687 7.68447 85.6099 7.89631 85.8586 8.32198H85.8793V5.62971H86.9147V11.2082C86.9147 11.6617 86.9256 12.0864 86.9532 12.4723H86.0323ZM85.8793 9.71237C85.8793 9.05596 85.448 8.49603 84.7896 8.49603C84.0227 8.49603 83.5539 9.18127 83.5539 10.146C83.5539 11.0918 84.0405 11.7393 84.7689 11.7393C85.4194 11.7393 85.8793 11.1694 85.8793 10.4941V9.71237ZM93.4794 12.5787C92.1203 12.5787 91.2389 11.5553 91.2389 10.1659C91.2389 8.71781 92.139 7.68546 93.5564 7.68546C94.8978 7.68546 95.7979 8.66013 95.7979 10.0893C95.7989 11.5553 94.8701 12.5787 93.4794 12.5787ZM93.5179 8.44729C92.7717 8.44729 92.293 9.15144 92.293 10.136C92.293 11.1018 92.7816 11.8059 93.508 11.8059C94.2365 11.8059 94.7241 11.053 94.7241 10.1162C94.726 9.16138 94.2473 8.44729 93.5179 8.44729ZM101.361 12.4723H100.325V9.779C100.325 8.94954 100.01 8.53382 99.3868 8.53382C98.7738 8.53382 98.3533 9.06491 98.3533 9.68253V12.4723H97.318V9.1226C97.318 8.70787 97.3081 8.2633 97.2795 7.78094H98.1895L98.2379 8.50498H98.2665C98.5438 8.00372 99.1094 7.68447 99.7411 7.68447C100.718 7.68447 101.361 8.43735 101.361 9.66264V12.4723ZM108.32 8.56366H107.182V10.8412C107.182 11.421 107.382 11.7104 107.784 11.7104C107.967 11.7104 108.12 11.6905 108.243 11.6617L108.272 12.4534C108.072 12.5309 107.803 12.5697 107.47 12.5697C106.654 12.5697 106.167 12.1162 106.167 10.9287V8.56366H105.488V7.78193H106.167V6.92264L107.182 6.61333V7.78094H108.32V8.56366ZM113.796 12.4723H112.763V9.79889C112.763 8.95949 112.448 8.53481 111.824 8.53481C111.288 8.53481 110.789 8.9018 110.789 9.64474V12.4723H109.755V5.62971H110.789V8.44729H110.81C111.135 7.93609 111.607 7.68447 112.209 7.68447C113.194 7.68447 113.796 8.45624 113.796 9.68253V12.4723ZM119.407 10.3777H116.302C116.322 11.2659 116.905 11.7671 117.769 11.7671C118.228 11.7671 118.651 11.6895 119.024 11.5453L119.185 12.2694C118.744 12.4623 118.226 12.5588 117.623 12.5588C116.167 12.5588 115.306 11.6319 115.306 10.1947C115.306 8.7566 116.188 7.67552 117.507 7.67552C118.696 7.67552 119.442 8.56366 119.442 9.90531C119.449 10.0636 119.437 10.2222 119.407 10.3777ZM118.458 9.63479C118.458 8.91076 118.096 8.39955 117.435 8.39955C116.84 8.39955 116.371 8.9207 116.303 9.63479H118.458Z" fill="white"/>
</svg>