<?xml version="1.0" encoding="utf-8"?>
<svg xmlns="http://www.w3.org/2000/svg" width="36" height="24" viewBox="0 0 36 24" fill="none">
<rect x="0.687256" width="35" height="24" rx="4" fill="white"/>
<rect x="0.687256" width="35" height="24" rx="4" stroke="white"/>
<path fill-rule="evenodd" clip-rule="evenodd" d="M9.03346 8.93296C9.5035 8.97261 9.97354 8.69506 10.2673 8.34316C10.5562 7.98135 10.7471 7.49563 10.6982 7C10.282 7.01983 9.7679 7.27755 9.47412 7.63936C9.20483 7.95161 8.9747 8.45715 9.03346 8.93296ZM14.625 15.3167V7.58981H17.4893C18.968 7.58981 20.0011 8.62072 20.0011 10.1274C20.0011 11.6342 18.9484 12.675 17.4501 12.675H15.8099V15.3167H14.625ZM10.6933 9.02714C10.2792 9.00301 9.90131 9.1532 9.59612 9.27451C9.39972 9.35257 9.2334 9.41868 9.10687 9.41868C8.96488 9.41868 8.79169 9.34904 8.59725 9.27085C8.34247 9.16839 8.05117 9.05125 7.74571 9.05687C7.04554 9.06679 6.39434 9.46825 6.03691 10.1076C5.30248 11.3863 5.84596 13.2796 6.55592 14.3205C6.90355 14.8359 7.31973 15.4009 7.86812 15.3811C8.10937 15.3719 8.28292 15.2974 8.46252 15.2202C8.66929 15.1314 8.88409 15.0391 9.21948 15.0391C9.54325 15.0391 9.74866 15.129 9.94583 15.2152C10.1333 15.2973 10.3134 15.376 10.5806 15.3712C11.1486 15.3613 11.506 14.8557 11.8537 14.3403C12.2288 13.7871 12.3937 13.2471 12.4187 13.1652L12.4216 13.1557C12.421 13.1551 12.4164 13.153 12.4082 13.1492C12.2828 13.0911 11.3243 12.6469 11.3151 11.4557C11.3059 10.4559 12.0754 9.94937 12.1965 9.86963L12.1965 9.86962C12.2039 9.86477 12.2089 9.8615 12.2111 9.85979C11.7215 9.12626 10.9577 9.04696 10.6933 9.02714ZM22.1653 15.3761C22.9095 15.3761 23.5999 14.9945 23.9132 14.3898H23.9377V15.3166H25.0345V11.4706C25.0345 10.3554 24.1532 9.63672 22.7969 9.63672C21.5386 9.63672 20.6083 10.3653 20.574 11.3665H21.6414C21.7295 10.8907 22.1653 10.5784 22.7626 10.5784C23.4873 10.5784 23.8937 10.9204 23.8937 11.5499V11.9761L22.415 12.0653C21.0391 12.1496 20.2949 12.7195 20.2949 13.7108C20.2949 14.712 21.0636 15.3761 22.1653 15.3761ZM22.4835 14.4592C21.8519 14.4592 21.4504 14.1519 21.4504 13.6811C21.4504 13.1954 21.8372 12.9129 22.5765 12.8683L23.8936 12.784V13.2202C23.8936 13.9438 23.2865 14.4592 22.4835 14.4592ZM28.6724 15.619C28.1974 16.9721 27.654 17.4181 26.4984 17.4181C26.4103 17.4181 26.1165 17.4082 26.048 17.3884V16.4616C26.1214 16.4715 26.3026 16.4814 26.3956 16.4814C26.9195 16.4814 27.2133 16.2584 27.3945 15.6785L27.5022 15.3365L25.4947 9.71108H26.7335L28.1289 14.2758H28.1534L29.5488 9.71108H30.7533L28.6724 15.619ZM15.8098 8.60087H17.1758C18.2041 8.60087 18.7916 9.15598 18.7916 10.1324C18.7916 11.1088 18.2041 11.6688 17.171 11.6688H15.8098V8.60087Z" fill="black"/>
</svg>