<?xml version="1.0" encoding="utf-8"?>
<svg xmlns="http://www.w3.org/2000/svg" width="36" height="24" viewBox="0 0 36 24" fill="none">
<rect x="0.687256" width="35" height="24" rx="4" fill="white"/>
<rect x="0.687256" width="35" height="24" rx="4" stroke="white"/>
<path fill-rule="evenodd" clip-rule="evenodd" d="M11.3125 16.2582H9.19219L7.60221 10.1924C7.52674 9.91334 7.3665 9.66667 7.1308 9.5504C6.54257 9.25823 5.89437 9.0257 5.18726 8.90843V8.6749H8.60293C9.07434 8.6749 9.4279 9.0257 9.48683 9.43313L10.3118 13.8086L12.4311 8.6749H14.4925L11.3125 16.2582ZM15.671 16.2582H13.6685L15.3175 8.6749H17.3199L15.671 16.2582ZM19.9106 10.7757C19.9696 10.3673 20.3231 10.1337 20.7356 10.1337C21.3838 10.0751 22.0899 10.1924 22.6791 10.4835L23.0327 8.85081C22.4434 8.61727 21.7952 8.5 21.207 8.5C19.2635 8.5 17.8492 9.55041 17.8492 11.0082C17.8492 12.1173 18.851 12.6996 19.5581 13.0504C20.3231 13.4002 20.6177 13.6338 20.5588 13.9835C20.5588 14.5082 19.9696 14.7418 19.3813 14.7418C18.6742 14.7418 17.9671 14.5669 17.3199 14.2747L16.9664 15.9085C17.6735 16.1996 18.4385 16.3169 19.1456 16.3169C21.3249 16.3745 22.6791 15.3251 22.6791 13.75C22.6791 11.7665 19.9106 11.6502 19.9106 10.7757ZM29.6873 16.2582L28.0973 8.6749H26.3894C26.0359 8.6749 25.6823 8.90843 25.5645 9.25823L22.6202 16.2582H24.6816L25.0931 15.1502H27.6259L27.8616 16.2582H29.6873ZM26.6841 10.7171L27.2723 13.5751H25.6234L26.6841 10.7171Z" fill="#172B85"/>
</svg>