<?xml version="1.0" encoding="utf-8"?>
<svg xmlns="http://www.w3.org/2000/svg" width="36" height="24" viewBox="0 0 36 24" fill="none">
<rect x="0.687256" width="35" height="24" rx="4" fill="white"/>
<rect x="0.687256" width="35" height="24" rx="4" stroke="white"/>
<path fill-rule="evenodd" clip-rule="evenodd" d="M10.5873 15.241H9.03165C8.92519 15.241 8.83466 15.3183 8.81806 15.4234L8.18889 19.4125C8.17638 19.4912 8.23734 19.5621 8.31718 19.5621H9.05985C9.1663 19.5621 9.25684 19.4848 9.27344 19.3795L9.44313 18.3036C9.4595 18.1982 9.55026 18.121 9.65649 18.121H10.1489C11.1737 18.121 11.7651 17.6251 11.9196 16.6424C11.9892 16.2125 11.9225 15.8748 11.7212 15.6381C11.5001 15.3784 11.1079 15.241 10.5873 15.241ZM10.7667 16.6979C10.6817 17.2561 10.2552 17.2561 9.84279 17.2561H9.60804L9.77272 16.2136C9.7825 16.1507 9.83709 16.1042 9.90079 16.1042H10.0084C10.2893 16.1042 10.5543 16.1042 10.6913 16.2643C10.7728 16.3599 10.7979 16.5018 10.7667 16.6979ZM15.2374 16.68H14.4924C14.429 16.68 14.3741 16.7264 14.3643 16.7895L14.3314 16.9978L14.2793 16.9223C14.118 16.6882 13.7584 16.61 13.3995 16.61C12.5762 16.61 11.8732 17.2335 11.7362 18.1081C11.6651 18.5443 11.7662 18.9615 12.0137 19.2524C12.2407 19.5199 12.5656 19.6314 12.952 19.6314C13.6153 19.6314 13.9832 19.2049 13.9832 19.2049L13.9499 19.4119C13.9374 19.4911 13.9983 19.562 14.0777 19.562H14.7487C14.8555 19.562 14.9455 19.4847 14.9623 19.3794L15.365 16.8297C15.3777 16.7513 15.317 16.68 15.2374 16.68ZM14.199 18.1299C14.1271 18.5555 13.7893 18.8412 13.3585 18.8412C13.1422 18.8412 12.9693 18.7718 12.8583 18.6403C12.7482 18.5098 12.7063 18.3239 12.7414 18.117C12.8085 17.695 13.152 17.4 13.5762 17.4C13.7877 17.4 13.9597 17.4702 14.073 17.6029C14.1864 17.7369 14.2315 17.9238 14.199 18.1299ZM18.4562 16.6799H19.2049C19.3097 16.6799 19.3709 16.7975 19.3113 16.8835L16.8215 20.4774C16.7812 20.5356 16.7148 20.5702 16.6438 20.5702H15.8961C15.7909 20.5702 15.7294 20.4517 15.7903 20.3655L16.5656 19.2712L15.7411 16.8514C15.7125 16.7673 15.7746 16.6799 15.8641 16.6799H16.5997C16.6953 16.6799 16.7796 16.7427 16.8072 16.8341L17.2448 18.2956L18.2773 16.7748C18.3177 16.7154 18.3849 16.6799 18.4562 16.6799Z" fill="#253B80"/>
<path fill-rule="evenodd" clip-rule="evenodd" d="M26.5726 19.4124L27.2111 15.3504C27.2209 15.2874 27.2755 15.2409 27.339 15.2407H28.0577C28.1371 15.2407 28.198 15.3119 28.1855 15.3906L27.5559 19.3795C27.5395 19.4847 27.449 19.5621 27.3423 19.5621H26.7004C26.6211 19.5621 26.5601 19.4912 26.5726 19.4124ZM21.6833 15.2409H20.1274C20.0212 15.2409 19.9306 15.3183 19.914 15.4234L19.2848 19.4124C19.2723 19.4912 19.3333 19.5621 19.4127 19.5621H20.2111C20.2853 19.5621 20.3487 19.508 20.3603 19.4343L20.5388 18.3036C20.5553 18.1982 20.646 18.1209 20.7522 18.1209H21.2444C22.2694 18.1209 22.8606 17.625 23.0153 16.6424C23.0851 16.2125 23.018 15.8747 22.8167 15.6381C22.5958 15.3784 22.2039 15.2409 21.6833 15.2409ZM21.8627 16.6979C21.7779 17.2561 21.3514 17.2561 20.9387 17.2561H20.7042L20.8692 16.2136C20.8789 16.1506 20.9331 16.1042 20.9969 16.1042H21.1045C21.3853 16.1042 21.6505 16.1042 21.7874 16.2643C21.8691 16.3599 21.8939 16.5018 21.8627 16.6979ZM26.333 16.68H25.5885C25.5245 16.68 25.4702 16.7264 25.4606 16.7895L25.4277 16.9978L25.3754 16.9223C25.2141 16.6882 24.8547 16.61 24.4958 16.61C23.6725 16.61 22.9697 17.2335 22.8327 18.1081C22.7618 18.5443 22.8625 18.9615 23.11 19.2524C23.3375 19.5199 23.6619 19.6314 24.0483 19.6314C24.7116 19.6314 25.0794 19.2048 25.0794 19.2048L25.0462 19.4119C25.0337 19.491 25.0946 19.562 25.1745 19.562H25.8453C25.9515 19.562 26.042 19.4846 26.0586 19.3794L26.4615 16.8297C26.4738 16.7513 26.4129 16.68 26.333 16.68ZM25.2946 18.1299C25.2232 18.5555 24.885 18.8412 24.4541 18.8412C24.2382 18.8412 24.065 18.7718 23.9539 18.6403C23.8438 18.5098 23.8024 18.3239 23.8371 18.1169C23.9045 17.6949 24.2476 17.4 24.6718 17.4C24.8834 17.4 25.0553 17.4702 25.1686 17.6028C25.2825 17.7368 25.3276 17.9238 25.2946 18.1299Z" fill="#179BD7"/>
<path d="M16.3443 13.8139L16.5355 12.5991L16.1095 12.5892H14.0753L15.489 3.62541C15.4933 3.59834 15.5076 3.57311 15.5285 3.55519C15.5493 3.53728 15.5761 3.5274 15.6038 3.5274H19.0339C20.1726 3.5274 20.9584 3.76436 21.3687 4.23206C21.561 4.45147 21.6835 4.68074 21.7428 4.93306C21.8049 5.19782 21.8061 5.51413 21.7453 5.89992L21.7409 5.92807V6.17526L21.9333 6.28424C22.0953 6.37017 22.224 6.46854 22.3227 6.58117C22.4873 6.76876 22.5938 7.00718 22.6387 7.28985C22.6851 7.58056 22.6698 7.92649 22.5938 8.31813C22.506 8.76865 22.3641 9.16102 22.1725 9.48208C21.9962 9.77791 21.7717 10.0232 21.5051 10.2134C21.2506 10.3941 20.9482 10.5312 20.6063 10.619C20.2749 10.7052 19.8972 10.7488 19.4829 10.7488H19.216C19.0251 10.7488 18.8396 10.8175 18.6942 10.9408C18.5483 11.0666 18.4516 11.2384 18.4221 11.4264L18.402 11.5358L18.0641 13.6767L18.0487 13.7553C18.0447 13.7803 18.0377 13.7927 18.0275 13.8011C18.0184 13.8087 18.0052 13.8139 17.9924 13.8139H16.3443Z" fill="#253B80"/>
<path d="M22.1154 5.95673C22.1052 6.02218 22.0935 6.08909 22.0803 6.15784C21.6279 8.48026 20.0804 9.28255 18.1039 9.28255H17.0976C16.8559 9.28255 16.6522 9.45807 16.6145 9.69649L16.0993 12.9642L15.9534 13.8904C15.9288 14.047 16.0496 14.1881 16.2075 14.1881H17.9924C18.2038 14.1881 18.3833 14.0345 18.4165 13.8261L18.4341 13.7354L18.7702 11.6027L18.7918 11.4858C18.8246 11.2766 19.0045 11.1231 19.2159 11.1231H19.4829C21.2121 11.1231 22.5659 10.4209 22.9616 8.3892C23.1269 7.54047 23.0413 6.83179 22.6039 6.33337C22.4716 6.18307 22.3074 6.05838 22.1154 5.95673Z" fill="#179BD7"/>
<path d="M21.6421 5.76819C21.573 5.74808 21.5017 5.72979 21.4285 5.71334C21.355 5.69726 21.2797 5.68299 21.2022 5.67056C20.9308 5.62668 20.6335 5.60583 20.315 5.60583H17.6266C17.5604 5.60583 17.4975 5.62082 17.4412 5.64789C17.3172 5.70749 17.2251 5.82488 17.2028 5.96858L16.6308 9.59098L16.6144 9.69665C16.6521 9.45823 16.8557 9.28271 17.0974 9.28271H18.1038C20.0803 9.28271 21.6279 8.48005 22.0802 6.158C22.0937 6.08926 22.105 6.02234 22.1152 5.95689C22.0008 5.89618 21.8768 5.84426 21.7433 5.8C21.7105 5.78904 21.6765 5.77844 21.6421 5.76819Z" fill="#222D65"/>
<path d="M17.2028 5.96848C17.2251 5.82477 17.3173 5.70739 17.4412 5.64814C17.498 5.62108 17.5605 5.60609 17.6266 5.60609H20.3151C20.6337 5.60609 20.9309 5.62693 21.2022 5.67082C21.2798 5.68325 21.3551 5.69751 21.4286 5.7136C21.5018 5.73006 21.573 5.74834 21.6422 5.76845C21.6765 5.77869 21.7105 5.78929 21.7438 5.7999C21.8773 5.84414 22.0013 5.89644 22.1157 5.95678C22.2503 5.09853 22.1146 4.51418 21.6506 3.98504C21.139 3.40253 20.2157 3.15314 19.0342 3.15314H15.6041C15.3627 3.15314 15.1569 3.32865 15.1196 3.56744L13.6909 12.6234C13.6627 12.8026 13.8009 12.9643 13.9816 12.9643H16.0992L16.6309 9.59087L17.2028 5.96848Z" fill="#253B80"/>
</svg>