<?xml version="1.0" encoding="utf-8"?>
<svg xmlns="http://www.w3.org/2000/svg" width="36" height="24" viewBox="0 0 36 24" fill="none">
<rect x="0.687256" width="35" height="24" rx="4" fill="white"/>
<rect x="0.687256" width="35" height="24" rx="4" stroke="white"/>
<path fill-rule="evenodd" clip-rule="evenodd" d="M18.4373 17.1569C17.2457 18.1852 15.7 18.806 14.011 18.806C10.2424 18.806 7.18726 15.7154 7.18726 11.903C7.18726 8.09057 10.2424 5 14.011 5C15.7 5 17.2457 5.62075 18.4373 6.64903C19.6288 5.62075 21.1745 5 22.8635 5C26.6322 5 29.6873 8.09057 29.6873 11.903C29.6873 15.7154 26.6322 18.806 22.8635 18.806C21.1745 18.806 19.6288 18.1852 18.4373 17.1569Z" fill="#ED0006"/>
<path fill-rule="evenodd" clip-rule="evenodd" d="M18.4373 17.1569C19.9045 15.8908 20.8348 14.0068 20.8348 11.903C20.8348 9.79917 19.9045 7.91517 18.4373 6.64903C19.6288 5.62075 21.1745 5 22.8635 5C26.6322 5 29.6873 8.09057 29.6873 11.903C29.6873 15.7154 26.6322 18.806 22.8635 18.806C21.1745 18.806 19.6288 18.1852 18.4373 17.1569Z" fill="#F9A000"/>
<path fill-rule="evenodd" clip-rule="evenodd" d="M18.4373 6.64905C19.9045 7.91518 20.8348 9.79917 20.8348 11.903C20.8348 14.0068 19.9045 15.8908 18.4373 17.1569C16.9701 15.8908 16.0398 14.0068 16.0398 11.903C16.0398 9.79917 16.9701 7.91518 18.4373 6.64905Z" fill="#FF5E00"/>
</svg>