<?xml version="1.0" encoding="utf-8"?>
<svg xmlns="http://www.w3.org/2000/svg" width="129" height="38" viewBox="0 0 129 38" fill="none">
<g clip-path="url(#clip0_1033_8944)">
<path d="M123.6 38H4.85422C2.24175 38 0.104309 35.8626 0.104309 33.2501V4.75063C0.104309 2.13816 2.24175 0.000717163 4.85422 0.000717163H123.6C126.213 0.000717163 128.35 2.13816 128.35 4.75063V33.2501C128.35 35.8626 126.213 38 123.6 38Z" fill="#100F0D"/>
<path d="M101.691 28.5002H103.463V16.6235H101.691V28.5002ZM117.657 20.902L115.625 26.0509H115.564L113.455 20.902H111.546L114.709 28.0983L112.905 32.1015H114.754L119.629 20.9024L117.657 20.902ZM107.604 27.1511C107.024 27.1511 106.214 26.8605 106.214 26.1425C106.214 25.2259 107.223 24.8745 108.093 24.8745C108.872 24.8745 109.24 25.0422 109.713 25.2716C109.575 26.3718 108.628 27.1511 107.604 27.1511ZM107.818 20.6423C106.535 20.6423 105.206 21.2078 104.656 22.4606L106.229 23.1175C106.565 22.4606 107.191 22.2469 107.849 22.2469C108.766 22.2469 109.698 22.7965 109.713 23.7747V23.8967C109.392 23.7134 108.704 23.4385 107.864 23.4385C106.167 23.4385 104.441 24.3702 104.441 26.1121C104.441 27.7011 105.832 28.7249 107.39 28.7249C108.581 28.7249 109.24 28.1901 109.651 27.5635H109.713V28.4807H111.425V23.9271C111.425 21.8186 109.85 20.6423 107.818 20.6423ZM96.863 22.3478H94.3417V18.277H96.863C98.1882 18.277 98.9406 19.374 98.9406 20.3124C98.9406 21.2327 98.1882 22.3478 96.863 22.3478ZM96.8174 16.6237H92.5698V28.5005H94.3418V24.0011H96.8174C98.782 24.0011 100.713 22.5791 100.713 20.3128C100.713 18.047 98.782 16.6237 96.8174 16.6237ZM73.656 27.1531C72.4313 27.1531 71.4064 26.1274 71.4064 24.7199C71.4064 23.2961 72.4313 22.2559 73.656 22.2559C74.865 22.2559 75.8139 23.2961 75.8139 24.7199C75.8139 26.1274 74.865 27.1531 73.656 27.1531ZM75.6914 21.5669H75.6301C75.2324 21.0926 74.4667 20.664 73.5031 20.664C71.4825 20.664 69.6308 22.4396 69.6308 24.7199C69.6308 26.9847 71.4825 28.7447 73.5031 28.7447C74.4667 28.7447 75.2323 28.3161 75.6301 27.8267H75.6914V28.4078C75.6914 29.9541 74.865 30.7801 73.5335 30.7801C72.4473 30.7801 71.7738 29.9997 71.4981 29.3417L69.9526 29.9844C70.3961 31.0553 71.5742 32.372 73.5336 32.372C75.6154 32.372 77.3754 31.1474 77.3754 28.1628V20.9088H75.6915L75.6914 21.5669ZM78.6 28.4998H80.3745V16.6231H78.6V28.4998ZM82.9919 24.5819C82.9462 23.0207 84.2016 22.2251 85.1041 22.2251C85.8084 22.2251 86.4047 22.5772 86.6044 23.0819L82.9919 24.5819ZM88.5014 23.2349C88.1648 22.3324 87.1395 20.664 85.0428 20.664C82.961 20.664 81.2318 22.3015 81.2318 24.7044C81.2318 26.9695 82.9462 28.7448 85.2414 28.7448C87.0931 28.7448 88.1649 27.6126 88.609 26.9543L87.2315 26.0359C86.7722 26.7094 86.145 27.1532 85.2414 27.1532C84.3389 27.1532 83.6958 26.7399 83.2832 25.9287L88.6851 23.6943L88.5014 23.2349ZM45.4597 21.9038V23.6178H49.5612C49.4388 24.582 49.1174 25.2859 48.6276 25.7757C48.0305 26.3724 47.0969 27.0307 45.4596 27.0307C42.9343 27.0307 40.9602 24.9953 40.9602 22.47C40.9602 19.9448 42.9343 17.9091 45.4596 17.9091C46.8218 17.9091 47.8164 18.4449 48.551 19.1336L49.7604 17.9243C48.7347 16.9449 47.3728 16.195 45.4596 16.195C42.0003 16.195 39.0925 19.0111 39.0925 22.47C39.0925 25.9286 42.0003 28.7448 45.4596 28.7448C47.3265 28.7448 48.7348 28.1325 49.8365 26.9848C50.9691 25.8522 51.3213 24.2606 51.3213 22.9748C51.3213 22.5773 51.2904 22.21 51.2292 21.9038H45.4597ZM55.9848 27.1531C54.7602 27.1531 53.7041 26.143 53.7041 24.7044C53.7041 23.2505 54.7602 22.2559 55.9848 22.2559C57.209 22.2559 58.265 23.2505 58.265 24.7044C58.265 26.143 57.209 27.1531 55.9848 27.1531ZM55.9848 20.664C53.7497 20.664 51.9287 22.3627 51.9287 24.7044C51.9287 27.0307 53.7497 28.7448 55.9848 28.7448C58.2191 28.7448 60.0404 27.0307 60.0404 24.7044C60.0404 22.3627 58.2191 20.664 55.9848 20.664ZM64.832 27.1531C63.6082 27.1531 62.5517 26.143 62.5517 24.7044C62.5517 23.2505 63.6082 22.2559 64.832 22.2559C66.0566 22.2559 67.1123 23.2505 67.1123 24.7044C67.1123 26.143 66.0566 27.1531 64.832 27.1531ZM64.832 20.664C62.5977 20.664 60.7768 22.3627 60.7768 24.7044C60.7768 27.0307 62.5977 28.7448 64.832 28.7448C67.0671 28.7448 68.888 27.0307 68.888 24.7044C68.888 22.3627 67.0671 20.664 64.832 20.664Z" fill="white"/>
<path d="M19.7826 18.4531L9.66931 29.1877C9.66969 29.1899 9.67045 29.1918 9.67081 29.1941C9.98098 30.3597 11.0457 31.218 12.3092 31.218C12.8143 31.218 13.2885 31.0815 13.6952 30.8417L13.7275 30.8228L25.1119 24.2535L19.7826 18.4531Z" fill="#EB3131"/>
<path d="M30.0149 16.6256L30.0052 16.619L25.0902 13.7697L19.5529 18.697L25.1095 24.2529L29.9985 21.432C30.8557 20.9693 31.4376 20.0656 31.4376 19.0236C31.4376 17.989 30.8636 17.0899 30.0149 16.6256Z" fill="#F6B60B"/>
<path d="M9.66783 8.81367C9.60703 9.03787 9.57507 9.27271 9.57507 9.51657V28.4856C9.57507 28.729 9.60665 28.9646 9.66821 29.188L20.1306 18.7277L9.66783 8.81367Z" fill="#5778C5"/>
<path d="M19.8574 19.0011L25.0924 13.7677L13.7208 7.17456C13.3075 6.927 12.8251 6.78412 12.3089 6.78412C11.0453 6.78412 9.97918 7.64397 9.66896 8.81098C9.66858 8.81212 9.66858 8.8129 9.66858 8.8139L19.8574 19.0011Z" fill="#3BAD49"/>
<path d="M45.1271 9.29249H42.3558V9.97829H44.4324C44.376 10.5379 44.1533 10.9773 43.7778 11.2964C43.4023 11.6156 42.9228 11.7759 42.3558 11.7759C41.7338 11.7759 41.2069 11.5592 40.775 11.1288C40.3519 10.6894 40.1367 10.1461 40.1367 9.49149C40.1367 8.83695 40.3519 8.29363 40.775 7.8543C41.2069 7.42386 41.7338 7.2086 42.3558 7.2086C42.675 7.2086 42.9793 7.26351 43.2582 7.38377C43.5373 7.50394 43.7614 7.67171 43.9366 7.88698L44.4636 7.36002C44.2246 7.08833 43.9218 6.88056 43.5462 6.72914C43.1706 6.57771 42.7788 6.50504 42.3557 6.50504C41.526 6.50504 40.8225 6.79298 40.248 7.36746C39.6735 7.94334 39.3856 8.65288 39.3856 9.4915C39.3856 10.3301 39.6735 11.0412 40.248 11.6157C40.8224 12.19 41.526 12.4781 42.3557 12.4781C43.227 12.4781 43.9217 12.199 44.4561 11.6319C44.9266 11.16 45.1671 10.5217 45.1671 9.72314C45.1671 9.58805 45.1508 9.44392 45.1271 9.29249ZM46.2007 6.63257V12.3503H49.5389V11.6482H46.9354V9.83439H49.2837V9.1486H46.9354V7.3362H49.5389V6.63255L46.2007 6.63257ZM54.2199 7.33623V6.63257H50.2908V7.33623H51.888V12.3503H52.6227V7.33623H54.2199ZM57.7771 6.63257H57.0423V12.3503H57.7771V6.63257ZM62.6268 7.33623V6.63257H58.6978V7.33623H60.2949V12.3503H61.0296V7.33623H62.6268ZM70.0411 7.37631C69.4741 6.79293 68.7794 6.50499 67.9496 6.50499C67.1184 6.50499 66.4238 6.79293 65.8567 7.36741C65.2897 7.93445 65.0107 8.64542 65.0107 9.49145C65.0107 10.3375 65.2897 11.0486 65.8567 11.6156C66.4238 12.19 67.1184 12.4781 67.9496 12.4781C68.7719 12.4781 69.474 12.19 70.0411 11.6156C70.6082 11.0486 70.8872 10.3376 70.8872 9.49145C70.8872 8.65283 70.6081 7.94325 70.0411 7.37631ZM66.3837 7.85425C66.8067 7.42381 67.3263 7.20855 67.9496 7.20855C68.5716 7.20855 69.0911 7.42381 69.5067 7.85425C69.9298 8.27727 70.1375 8.82938 70.1375 9.49144C70.1375 10.155 69.9298 10.7056 69.5067 11.1287C69.0911 11.5591 68.5716 11.7758 67.9496 11.7758C67.3263 11.7758 66.8067 11.5591 66.3837 11.1287C65.9695 10.6967 65.7618 10.155 65.7618 9.49144C65.7618 8.82939 65.9695 8.28617 66.3837 7.85425ZM72.6328 8.78941L72.6017 7.68645H72.6328L75.5392 12.3503H76.3065V6.63251H75.5718V9.97822L75.6029 11.0812H75.5718L72.7931 6.63251H71.8981V12.3503H72.6328V8.78941Z" fill="white" stroke="white" stroke-width="0.26666" stroke-miterlimit="10"/>
</g>
<defs>
<clipPath id="clip0_1033_8944">
<rect width="128.251" height="38" fill="white" transform="translate(0.101807)"/>
</clipPath>
</defs>
</svg>