<?xml version="1.0" encoding="utf-8"?>
<svg xmlns="http://www.w3.org/2000/svg" width="36" height="24" viewBox="0 0 36 24" fill="none">
<rect x="0.687256" width="35" height="24" rx="4" fill="#1F72CD"/>
<rect x="0.687256" width="35" height="24" rx="4" stroke="white"/>
<path fill-rule="evenodd" clip-rule="evenodd" d="M7.36837 8.5L4.18726 15.7467H7.99549L8.4676 14.5913H9.54674L10.0189 15.7467H14.2106V14.8649L14.5842 15.7467H16.7525L17.126 14.8462V15.7467H25.8438L26.9038 14.6213L27.8964 15.7467L32.3741 15.7561L29.1829 12.1436L32.3741 8.5H27.9659L26.934 9.60463L25.9727 8.5H16.4888L15.6745 10.3704L14.841 8.5H11.0407V9.35186L10.6179 8.5H7.36837ZM20.3866 9.52905H25.3928L26.9239 11.2316L28.5045 9.52905H30.0356L27.7092 12.1426L30.0356 14.726H28.435L26.9038 13.0036L25.3153 14.726H20.3866V9.52905ZM21.6229 11.555V10.6057V10.6048H24.7466L26.1096 12.1229L24.6862 13.6493H21.6229V12.613H24.354V11.555H21.6229ZM8.10524 9.52905H9.96155L12.0716 14.4431V9.52905H14.1051L15.7349 13.0524L17.2369 9.52905H19.2602V14.7291H18.029L18.019 10.6544L16.2241 14.7291H15.1227L13.3178 10.6544V14.7291H10.785L10.3048 13.5633H7.71064L7.23146 14.728H5.87442L8.10524 9.52905ZM8.15359 12.4856L9.00827 10.4089L9.86196 12.4856H8.15359Z" fill="white"/>
</svg>