<?xml version="1.0" encoding="utf-8"?>
<svg xmlns="http://www.w3.org/2000/svg" width="24" height="24" viewBox="0 0 24 24" fill="none">
<path d="M17.9994 0.0049936L14.8872 0C11.3907 0 9.13109 2.31828 9.13109 5.90643V8.62969H6.00188C5.73148 8.62969 5.51251 8.84891 5.51251 9.11932V13.065C5.51251 13.3354 5.73173 13.5544 6.00188 13.5544H9.13109V23.5106C9.13109 23.781 9.35006 24 9.62046 24H13.7032C13.9736 24 14.1926 23.7808 14.1926 23.5106V13.5544H17.8513C18.1217 13.5544 18.3407 13.3354 18.3407 13.065L18.3422 9.11932C18.3422 8.98948 18.2905 8.86514 18.1989 8.77326C18.1072 8.68138 17.9824 8.62969 17.8526 8.62969H14.1926V6.32115C14.1926 5.21157 14.457 4.64829 15.9023 4.64829L17.9989 4.64755C18.269 4.64755 18.488 4.42833 18.488 4.15817V0.494367C18.488 0.224462 18.2693 0.00549296 17.9994 0.0049936Z" fill="white"/>
</svg>