<?xml version="1.0" encoding="utf-8"?>
<svg xmlns="http://www.w3.org/2000/svg" width="24" height="24" viewBox="0 0 24 24" fill="none">
<path d="M3.46596 1.21875C1.81609 1.21875 0.737366 2.30214 0.737366 3.7261C0.737366 5.11862 1.78395 6.23291 3.40265 6.23291H3.43396C5.1161 6.23291 6.16296 5.11862 6.16296 3.7261C6.13151 2.30214 5.1161 1.21875 3.46596 1.21875Z" fill="white"/>
<path d="M1.02423 8.21387H5.8475V22.7249H1.02423V8.21387Z" fill="white"/>
<path d="M17.6853 7.87354C15.0833 7.87354 13.3385 10.3185 13.3385 10.3185V8.21411H8.51514V22.7252H13.3383V14.6216C13.3383 14.1878 13.3697 13.7547 13.4972 13.4444C13.8458 12.5782 14.6393 11.6807 15.9718 11.6807C17.7171 11.6807 18.4152 13.0114 18.4152 14.9622V22.7252H23.2381V14.4048C23.2381 9.94762 20.8584 7.87354 17.6853 7.87354Z" fill="white"/>
</svg>