<?xml version="1.0" encoding="utf-8"?>
<svg xmlns="http://www.w3.org/2000/svg" width="26" height="26" viewBox="0 0 26 26" fill="none">
<path d="M17.9807 1.0002C18.9175 0.967856 19.8511 1.12674 20.7245 1.46716C21.5979 1.80759 22.3928 2.3224 23.0607 2.9802C23.7044 3.64801 24.2078 4.43809 24.541 5.30376C24.8742 6.16942 25.0305 7.0931 25.0007 8.0202V17.9802C25.0007 20.0602 24.3207 21.8502 23.0207 23.1102C21.6416 24.3834 19.8166 25.0624 17.9407 25.0002H8.06068C6.20043 25.0578 4.39268 24.3786 3.03068 23.1102C2.35552 22.434 1.82686 21.6259 1.47761 20.7365C1.12836 19.847 0.966009 18.8952 1.00068 17.9402V8.0202C1.00068 3.8002 3.80068 1.0002 8.02068 1.0002H17.9807ZM18.0307 3.2302H8.06068C6.61068 3.2302 5.36068 3.6602 4.53068 4.4802C4.08717 4.95259 3.74346 5.50955 3.5201 6.11779C3.29673 6.72603 3.1983 7.37306 3.23068 8.0202V17.9402C3.23068 19.4402 3.66068 20.6402 4.53068 21.5202C5.50099 22.3784 6.76651 22.8265 8.06068 22.7702H17.9407C19.2348 22.8265 20.5004 22.3784 21.4707 21.5202C21.9365 21.0593 22.3015 20.5067 22.5425 19.8973C22.7835 19.2879 22.8953 18.6351 22.8707 17.9802V8.0202C22.9029 6.73287 22.4373 5.48273 21.5707 4.5302C21.0983 4.0867 20.5413 3.74299 19.9331 3.51962C19.3249 3.29626 18.6778 3.19782 18.0307 3.2302ZM13.0007 6.7602C16.3907 6.7602 19.2007 9.5602 19.2007 12.9602C19.2007 14.6045 18.5475 16.1815 17.3847 17.3443C16.222 18.507 14.645 19.1602 13.0007 19.1602C11.3563 19.1602 9.77934 18.507 8.61661 17.3443C7.45389 16.1815 6.80068 14.6045 6.80068 12.9602C6.80068 11.3159 7.45389 9.73887 8.61661 8.57614C9.77934 7.41342 11.3563 6.7602 13.0007 6.7602ZM13.0007 8.9802C11.9494 8.98546 10.9427 9.40541 10.1993 10.1488C9.45589 10.8922 9.03593 11.8989 9.03067 12.9502C9.03593 14.0015 9.45589 15.0082 10.1993 15.7516C10.9427 16.495 11.9494 16.9149 13.0007 16.9202C14.052 16.9149 15.0587 16.495 15.8021 15.7516C16.5455 15.0082 16.9654 14.0015 16.9707 12.9502C16.9654 11.8989 16.5455 10.8922 15.8021 10.1488C15.0587 9.40541 14.052 8.98546 13.0007 8.9802ZM19.4407 5.2102C19.812 5.2102 20.1681 5.3577 20.4306 5.62025C20.6932 5.8828 20.8407 6.2389 20.8407 6.6102C20.8407 6.98151 20.6932 7.3376 20.4306 7.60015C20.1681 7.8627 19.812 8.0102 19.4407 8.0102C19.0694 8.0102 18.7133 7.8627 18.4507 7.60015C18.1882 7.3376 18.0407 6.98151 18.0407 6.6102C18.0407 6.2389 18.1882 5.8828 18.4507 5.62025C18.7133 5.3577 19.0694 5.2102 19.4407 5.2102Z" fill="white"/>
</svg>