<?xml version="1.0" encoding="utf-8"?>
<svg xmlns="http://www.w3.org/2000/svg" width="23" height="22" viewBox="0 0 23 22" fill="none">
<path d="M18.6439 6.12883C17.7284 5.93301 16.8994 5.4499 16.2778 4.74994C15.6562 4.04997 15.2743 3.16975 15.188 2.23758V1.83333H12.0301V14.366C12.0281 14.9208 11.8524 15.4611 11.5275 15.9109C11.2027 16.3607 10.7451 16.6974 10.219 16.8737C9.69291 17.05 9.12481 17.0571 8.59452 16.8938C8.06423 16.7306 7.59841 16.4054 7.26252 15.9637C6.92141 15.5147 6.73219 14.9688 6.7223 14.405C6.7124 13.8412 6.88235 13.2889 7.20749 12.8282C7.53263 12.3675 7.99607 12.0224 8.53059 11.8428C9.06511 11.6632 9.64294 11.6586 10.1803 11.8296V8.62124C8.98205 8.4556 7.76203 8.66863 6.69084 9.23052C5.61966 9.79242 4.75089 10.6751 4.20606 11.755C3.66123 12.835 3.46758 14.0583 3.65221 15.2537C3.83684 16.4491 4.39051 17.557 5.23577 18.4222C6.04185 19.247 7.07542 19.8129 8.20454 20.0476C9.33366 20.2823 10.5071 20.1753 11.5751 19.7401C12.6431 19.3049 13.5572 18.5613 14.2007 17.6043C14.8442 16.6473 15.188 15.5202 15.188 14.3669V7.96308C16.4642 8.87547 17.9944 9.3647 19.5633 9.36191V6.22416C19.2543 6.22454 18.9462 6.19259 18.6439 6.12883Z" fill="white"/>
</svg>