<?xml version="1.0" encoding="utf-8"?>
<svg xmlns="http://www.w3.org/2000/svg" width="35" height="24" viewBox="0 0 35 24" fill="none">
<rect x="0.5" y="0.5" width="34" height="23" rx="3.5" fill="white" stroke="white"/>
<path fill-rule="evenodd" clip-rule="evenodd" d="M9.51318 4.95592H17.8419C23.5014 4.95592 25.6762 8.04886 25.6762 11.9583C25.6762 16.6349 22.6364 18.9855 17.8419 18.9855H9.51318V4.95592ZM10.304 5.79725V18.1938H17.8418C22.3892 18.1938 24.8606 16.0658 24.8606 11.9831C24.8606 7.77673 22.1915 5.79725 17.8418 5.79725H10.304ZM12.5283 12.2058C13.3609 12.2058 14.0359 11.5301 14.0359 10.6965C14.0359 9.86287 13.3609 9.1871 12.5283 9.1871C11.6957 9.1871 11.0207 9.86287 11.0207 10.6965C11.0207 11.5301 11.6957 12.2058 12.5283 12.2058ZM11.3174 12.8491H13.7394V17.1545H11.3174V12.8491Z" fill="black"/>
<path fill-rule="evenodd" clip-rule="evenodd" d="M22.1173 9.31078H22.8093V11.3892H23.8226C23.5507 7.60347 20.5603 6.76219 17.8418 6.76219H14.9502V9.31078H15.3703C16.1612 9.31078 16.6308 9.83039 16.6308 10.6964C16.6308 11.5624 16.1612 12.0821 15.3951 12.0821H14.9502V17.1545H17.8418C22.2656 17.1545 23.7732 15.1008 23.8473 12.0821H22.1173V9.31078ZM18.7809 11.3892V12.0821H17.0509V9.31078H18.7315V10.0036H17.7429V10.3253H18.682V11.0181H17.7676V11.3892H18.7809ZM19.0774 12.0821L19.9177 9.31078H20.9062L21.7465 12.0821H21.0298L20.8815 11.5625H19.9671L19.8188 12.0821H19.0774ZM20.1726 10.8448H20.1649V10.8696L20.1726 10.8448ZM20.1726 10.8448H20.6591L20.4367 10.0778H20.412L20.1726 10.8448ZM14.9502 11.3892V10.0036H15.3703C15.6422 10.0036 15.9388 10.0778 15.9388 10.6964C15.9388 11.315 15.6669 11.3892 15.3703 11.3892H14.9502Z" fill="#D50072"/>
</svg>