<svg width="800" height="230" viewBox="0 0 800 230" fill="none" xmlns="http://www.w3.org/2000/svg">
<path d="M56.0931 0L124.495 124.43C134.293 143.343 142.437 159.685 148.745 171.987C148.132 154.36 147.826 135.753 147.826 114.944V0H189.1V224.93H133.619L70.3001 111.822C58.6651 87.8908 47.275 68.0603 40.6614 54.4727C41.2737 71.4878 41.2737 95.4191 41.2737 115.923V224.93H0V0H56.0931Z" fill="#191919"/>
<path d="M219.657 62.0625H260.012V151.851C260.012 175.476 266.626 194.082 289.651 194.082C311.696 194.082 326.21 174.864 326.21 135.203V62.0625H366.871V224.93H327.189V196.898C318.371 215.81 303.552 229.337 278.322 229.337C236.436 229.337 219.718 201.611 219.718 161.644V62.0625H219.657Z" fill="#191919"/>
<path d="M395.714 62.0627H435.395V88.8094C440.417 73.3857 455.542 57.5947 479.18 57.5947C501.225 57.5947 516.35 67.0203 524.556 88.1362C533.681 68.6117 546.295 57.5947 569.933 57.5947C610.9 57.5947 631.047 85.3207 631.047 125.288V224.808H590.998V135.142C590.998 111.517 584.691 92.9102 564.544 92.9102C545.622 92.9102 533.374 113.047 533.374 147.077V224.869H494.305V135.142C494.305 111.517 490.202 92.9102 467.851 92.9102C442.621 92.9102 436.314 120.024 436.314 151.79V224.869H395.652V62.0627H395.714Z" fill="#191919"/>
<path d="M726.883 57.0439C777.954 57.0439 796.877 86.3613 796.877 126.328V185.208C796.877 197.816 797.795 214.525 800 224.869H759.338C758.42 219.544 758.052 213.546 758.052 208.16V199.958H757.746C751.132 212.873 737.599 229.276 706.674 229.276C671.035 229.276 649.602 207.854 649.602 180.434C649.602 135.693 703.184 131.286 725.842 127.858C746.968 124.737 757.072 121.554 757.072 107.722C757.072 94.8076 745.744 87.2182 727.128 87.2182C711.083 87.2182 699.081 96.6438 694.978 111.762H656.828C661.665 85.076 684.017 57.0439 726.883 57.0439ZM717.758 199.408C738.579 199.408 757.807 187.105 757.807 149.342V135.509C754.011 143.405 745.499 150.627 721.555 155.34C699.816 159.746 690.018 166.357 690.018 178.659C690.018 190.227 699.449 199.408 717.758 199.408Z" fill="#191919"/>
</svg>
