<svg width="1231" height="230" viewBox="0 0 1231 230" fill="none" xmlns="http://www.w3.org/2000/svg">
<path d="M56.0931 0L124.495 124.43C134.293 143.343 142.437 159.685 148.745 171.987C148.132 154.36 147.826 135.753 147.826 114.944V0H189.1V224.93H133.619L70.3001 111.822C58.6651 87.8908 47.275 68.0603 40.6614 54.4727C41.2737 71.4878 41.2737 95.4191 41.2737 115.923V224.93H0V0H56.0931Z" fill="#191919"/>
<path d="M219.657 62.0625H260.012V151.851C260.012 175.476 266.626 194.082 289.651 194.082C311.696 194.082 326.21 174.864 326.21 135.203V62.0625H366.871V224.93H327.189V196.898C318.371 215.81 303.552 229.337 278.322 229.337C236.436 229.337 219.718 201.611 219.718 161.644V62.0625H219.657Z" fill="#191919"/>
<path d="M395.714 62.0627H435.395V88.8094C440.417 73.3857 455.542 57.5947 479.18 57.5947C501.225 57.5947 516.35 67.0203 524.556 88.1362C533.681 68.6117 546.295 57.5947 569.933 57.5947C610.9 57.5947 631.047 85.3207 631.047 125.288V224.808H590.998V135.142C590.998 111.517 584.691 92.9102 564.544 92.9102C545.622 92.9102 533.374 113.047 533.374 147.077V224.869H494.305V135.142C494.305 111.517 490.202 92.9102 467.851 92.9102C442.621 92.9102 436.314 120.024 436.314 151.79V224.869H395.652V62.0627H395.714Z" fill="#191919"/>
<path d="M726.883 57.0439C777.954 57.0439 796.877 86.3613 796.877 126.328V185.208C796.877 197.816 797.795 214.525 800 224.869H759.338C758.42 219.544 758.052 213.546 758.052 208.16V199.958H757.746C751.132 212.873 737.599 229.276 706.674 229.276C671.035 229.276 649.602 207.854 649.602 180.434C649.602 135.693 703.184 131.286 725.842 127.858C746.968 124.737 757.072 121.554 757.072 107.722C757.072 94.8076 745.744 87.2182 727.128 87.2182C711.083 87.2182 699.081 96.6438 694.978 111.762H656.828C661.665 85.076 684.017 57.0439 726.883 57.0439ZM717.758 199.408C738.579 199.408 757.807 187.105 757.807 149.342V135.509C754.011 143.405 745.499 150.627 721.555 155.34C699.816 159.746 690.018 166.357 690.018 178.659C690.018 190.227 699.449 199.408 717.758 199.408Z" fill="#191919"/>
<path d="M964.25 150.633H969.362L972.746 168.093L973.286 171.225H973.358L974.006 168.093L977.822 150.633H984.086L987.65 168.093L988.298 171.261H988.442L989.018 168.093L992.546 150.633H997.658L993.482 168.093L991.574 176.337H985.094L983.51 168.093L980.954 155.421H980.882L978.146 168.093L976.454 176.337H970.01L968.21 168.093L964.25 150.633ZM1016.44 170.865C1015.32 174.573 1012.08 176.913 1007.58 176.913C1001.96 176.913 998.04 172.917 998.04 166.977C998.04 161.289 1002.07 157.185 1007.62 157.185C1013.84 157.185 1016.69 161.901 1016.72 167.409V168.309H1002.47C1002.83 171.297 1004.84 173.169 1007.54 173.169C1009.49 173.169 1011.14 172.485 1011.83 170.865H1016.44ZM1002.5 165.213H1012.26C1011.97 162.801 1010.53 160.713 1007.54 160.713C1004.77 160.713 1002.94 162.513 1002.5 165.213ZM1034.96 157.221C1038.2 157.221 1040.14 159.273 1040.72 160.821H1040.75V150.633H1045.5V176.337H1040.72V173.421H1040.68C1040 174.861 1038.16 176.805 1035.03 176.805C1029.99 176.805 1026.24 172.989 1026.24 167.013C1026.24 161.037 1029.95 157.221 1034.96 157.221ZM1030.85 167.013C1030.85 170.433 1032.62 173.169 1036 173.169C1039.49 173.169 1041.15 170.181 1041.15 167.013C1041.15 163.845 1039.38 160.893 1036 160.893C1032.69 160.893 1030.85 163.593 1030.85 167.013ZM1058.06 176.877C1052.63 176.877 1048.31 173.025 1048.31 167.013C1048.31 161.037 1052.63 157.221 1058.06 157.221C1063.5 157.221 1067.78 161.037 1067.78 167.013C1067.78 173.025 1063.5 176.877 1058.06 176.877ZM1052.84 167.013C1052.84 170.397 1054.9 173.205 1058.06 173.205C1061.23 173.205 1063.28 170.397 1063.28 167.013C1063.28 163.665 1061.23 160.857 1058.06 160.857C1054.9 160.857 1052.84 163.665 1052.84 167.013ZM1083.84 169.353C1083.84 171.513 1084.31 172.737 1086.29 172.737H1087.48V176.409H1085.25C1080.64 176.481 1079.34 173.745 1079.34 170.001V161.253H1076.35V157.725H1079.34V153.513L1083.84 151.533V157.725H1087.59V161.253H1083.84V169.353ZM1090.13 176.337V150.633H1094.67V160.893C1095.71 158.769 1097.37 157.221 1100.25 157.221C1105.07 157.221 1106.94 160.389 1106.94 164.961V176.337H1102.34V166.077C1102.34 163.377 1101.62 161.253 1098.95 161.253C1096.47 161.253 1094.78 163.449 1094.78 167.985V176.337H1090.13ZM1127.96 170.865C1126.85 174.573 1123.61 176.913 1119.11 176.913C1113.49 176.913 1109.57 172.917 1109.57 166.977C1109.57 161.289 1113.6 157.185 1119.14 157.185C1125.37 157.185 1128.22 161.901 1128.25 167.409V168.309H1114C1114.36 171.297 1116.37 173.169 1119.07 173.169C1121.02 173.169 1122.67 172.485 1123.36 170.865H1127.96ZM1114.03 165.213H1123.79C1123.5 162.801 1122.06 160.713 1119.07 160.713C1116.3 160.713 1114.46 162.513 1114.03 165.213ZM1143.46 157.725V161.001C1144.5 158.517 1146.52 157.545 1149.11 157.509V161.865C1148.86 161.865 1147.53 161.865 1146.88 162.117C1145.22 162.513 1143.57 163.413 1143.57 167.949V176.337H1138.92V157.725H1143.46ZM1160 176.877C1154.56 176.877 1150.24 173.025 1150.24 167.013C1150.24 161.037 1154.56 157.221 1160 157.221C1165.43 157.221 1169.72 161.037 1169.72 167.013C1169.72 173.025 1165.43 176.877 1160 176.877ZM1154.78 167.013C1154.78 170.397 1156.83 173.205 1160 173.205C1163.16 173.205 1165.22 170.397 1165.22 167.013C1165.22 163.665 1163.16 160.857 1160 160.857C1156.83 160.857 1154.78 163.665 1154.78 167.013ZM1181.11 176.877C1175.67 176.877 1171.35 173.025 1171.35 167.013C1171.35 161.037 1175.67 157.221 1181.11 157.221C1186.55 157.221 1190.83 161.037 1190.83 167.013C1190.83 173.025 1186.55 176.877 1181.11 176.877ZM1175.89 167.013C1175.89 170.397 1177.94 173.205 1181.11 173.205C1184.28 173.205 1186.33 170.397 1186.33 167.013C1186.33 163.665 1184.28 160.857 1181.11 160.857C1177.94 160.857 1175.89 163.665 1175.89 167.013ZM1193.59 176.337V157.725H1198.12V160.785C1198.7 159.021 1200.43 157.221 1203.13 157.221C1205.65 157.221 1207.38 158.301 1208.31 160.713C1209.36 158.481 1210.8 157.221 1213.5 157.221C1218.18 157.221 1220.48 160.389 1220.48 164.961V176.337H1215.91V166.077C1215.91 163.377 1215.19 161.253 1212.88 161.253C1210.72 161.253 1209.32 163.557 1209.32 167.445V176.337H1204.86V166.077C1204.86 163.377 1204.39 161.253 1201.83 161.253C1198.95 161.253 1198.23 164.349 1198.23 167.985V176.337H1193.59ZM1224.16 171.585H1228.94V176.337H1224.16V171.585ZM989.99 194.633C991.898 198.377 993.878 202.157 995.678 205.793C997.55 202.157 999.026 199.169 1001.29 194.633H1006.66L997.946 210.329V220.337H993.122V210.329L984.518 194.633H989.99ZM1013.47 220.877C1008.03 220.877 1003.71 217.025 1003.71 211.013C1003.71 205.037 1008.03 201.221 1013.47 201.221C1018.91 201.221 1023.19 205.037 1023.19 211.013C1023.19 217.025 1018.91 220.877 1013.47 220.877ZM1008.25 211.013C1008.25 214.397 1010.3 217.205 1013.47 217.205C1016.64 217.205 1018.69 214.397 1018.69 211.013C1018.69 207.665 1016.64 204.857 1013.47 204.857C1010.3 204.857 1008.25 207.665 1008.25 211.013ZM1025.84 213.101V201.725H1030.45V211.985C1030.45 214.685 1031.2 216.809 1033.83 216.809C1036.35 216.809 1038.01 214.613 1038.01 210.077V201.725H1042.65V220.337H1038.11V217.133C1037.11 219.293 1035.41 220.841 1032.53 220.841C1027.75 220.841 1025.84 217.673 1025.84 213.101ZM1061.89 201.221C1065.13 201.221 1067.07 203.273 1067.65 204.821H1067.68V194.633H1072.43V220.337H1067.65V217.421H1067.61C1066.93 218.861 1065.09 220.805 1061.96 220.805C1056.92 220.805 1053.17 216.989 1053.17 211.013C1053.17 205.037 1056.88 201.221 1061.89 201.221ZM1057.78 211.013C1057.78 214.433 1059.55 217.169 1062.93 217.169C1066.42 217.169 1068.08 214.181 1068.08 211.013C1068.08 207.845 1066.31 204.893 1062.93 204.893C1059.62 204.893 1057.78 207.593 1057.78 211.013ZM1084.99 220.877C1079.56 220.877 1075.24 217.025 1075.24 211.013C1075.24 205.037 1079.56 201.221 1084.99 201.221C1090.43 201.221 1094.71 205.037 1094.71 211.013C1094.71 217.025 1090.43 220.877 1084.99 220.877ZM1079.77 211.013C1079.77 214.397 1081.83 217.205 1084.99 217.205C1088.16 217.205 1090.21 214.397 1090.21 211.013C1090.21 207.665 1088.16 204.857 1084.99 204.857C1081.83 204.857 1079.77 207.665 1079.77 211.013ZM1110.77 213.353C1110.77 215.513 1111.24 216.737 1113.22 216.737H1114.41V220.409H1112.18C1107.57 220.481 1106.27 217.745 1106.27 214.001V205.253H1103.28V201.725H1106.27V197.513L1110.77 195.533V201.725H1114.52V205.253H1110.77V213.353ZM1117.06 220.337V194.633H1121.6V204.893C1122.64 202.769 1124.3 201.221 1127.18 201.221C1132 201.221 1133.87 204.389 1133.87 208.961V220.337H1129.27V210.077C1129.27 207.377 1128.55 205.253 1125.88 205.253C1123.4 205.253 1121.71 207.449 1121.71 211.985V220.337H1117.06ZM1154.89 214.865C1153.78 218.573 1150.54 220.913 1146.04 220.913C1140.42 220.913 1136.5 216.917 1136.5 210.977C1136.5 205.289 1140.53 201.185 1146.07 201.185C1152.3 201.185 1155.15 205.901 1155.18 211.409V212.309H1140.93C1141.29 215.297 1143.3 217.169 1146 217.169C1147.95 217.169 1149.6 216.485 1150.29 214.865H1154.89ZM1140.96 209.213H1150.72C1150.43 206.801 1148.99 204.713 1146 204.713C1143.23 204.713 1141.39 206.513 1140.96 209.213ZM1183.35 214.109C1182.56 218.465 1179.1 220.877 1174.64 220.877C1169.17 220.877 1164.7 217.097 1164.7 211.013C1164.7 204.929 1169.17 201.221 1174.64 201.221C1179.17 201.221 1182.59 203.777 1183.28 207.809H1178.89C1178.27 205.901 1176.76 204.857 1174.6 204.857C1171.33 204.857 1169.31 207.557 1169.31 211.049C1169.31 214.505 1171.33 217.241 1174.6 217.241C1176.69 217.241 1178.38 216.233 1178.99 214.109H1183.35ZM1191.23 198.953H1186.44V194.633H1191.23V198.953ZM1186.37 220.337V201.725H1191.02V220.337H1186.37ZM1200.83 213.353C1200.83 215.513 1201.3 216.737 1203.28 216.737H1204.47V220.409H1202.24C1197.63 220.481 1196.33 217.745 1196.33 214.001V205.253H1193.34V201.725H1196.33V197.513L1200.83 195.533V201.725H1204.58V205.253H1200.83V213.353ZM1210.71 201.725C1212.29 206.513 1213.87 210.725 1215.42 215.441H1215.49C1216.68 211.265 1218.27 206.657 1219.78 201.725H1224.64C1219.17 216.953 1222.26 208.133 1216.54 224.009C1215.71 226.241 1214.23 227.537 1211.71 227.537H1208.22V223.973H1210.2C1211.57 223.973 1212.15 223.397 1212.58 222.137L1213.05 220.697C1210.31 213.425 1208.04 207.737 1205.85 201.725H1210.71ZM1224.16 215.585H1228.94V220.337H1224.16V215.585Z" fill="#191919"/>
</svg>
