<svg width="296" height="88" viewBox="0 0 296 88" fill="none" xmlns="http://www.w3.org/2000/svg">
<rect width="58" height="39.7714" rx="4" fill="white"/>
<rect width="58" height="39.7714" rx="4" stroke="white"/>
<path fill-rule="evenodd" clip-rule="evenodd" d="M16.4059 25.2568H13.828C13.6516 25.2568 13.5015 25.385 13.474 25.5591L12.4314 32.1696C12.4107 32.3001 12.5117 32.4176 12.644 32.4176H13.8747C14.0511 32.4176 14.2012 32.2894 14.2287 32.115L14.5099 30.3321C14.537 30.1575 14.6874 30.0294 14.8634 30.0294H15.6795C17.3776 30.0294 18.3576 29.2076 18.6137 27.5793C18.729 26.8669 18.6186 26.3071 18.2849 25.915C17.9186 25.4846 17.2686 25.2568 16.4059 25.2568ZM16.7033 27.6712C16.5623 28.5962 15.8556 28.5962 15.1722 28.5962H14.7832L15.0561 26.8686C15.0723 26.7643 15.1627 26.6874 15.2683 26.6874H15.4466C15.9121 26.6874 16.3513 26.6874 16.5782 26.9527C16.7134 27.1111 16.7549 27.3462 16.7033 27.6712ZM24.1118 27.6416H22.8773C22.7721 27.6416 22.6812 27.7185 22.665 27.823L22.6104 28.1682L22.5241 28.0431C22.2568 27.6552 21.6609 27.5256 21.0661 27.5256C19.7018 27.5256 18.5368 28.5587 18.3098 30.0081C18.1919 30.731 18.3596 31.4223 18.7697 31.9044C19.1459 32.3477 19.6842 32.5324 20.3246 32.5324C21.4237 32.5324 22.0334 31.8256 22.0334 31.8256L21.9782 32.1687C21.9575 32.2999 22.0585 32.4175 22.19 32.4175H23.302C23.4789 32.4175 23.6281 32.2892 23.656 32.1148L24.3232 27.8896C24.3443 27.7597 24.2436 27.6416 24.1118 27.6416ZM22.391 30.0442C22.2718 30.7495 21.712 31.2229 20.9983 31.2229C20.6398 31.2229 20.3532 31.108 20.1693 30.8901C19.9869 30.6738 19.9174 30.3657 19.9755 30.0228C20.0868 29.3235 20.656 28.8347 21.359 28.8347C21.7094 28.8347 21.9945 28.9511 22.1822 29.1708C22.3702 29.3929 22.4449 29.7027 22.391 30.0442ZM29.4459 27.6414H30.6865C30.8602 27.6414 30.9615 27.8362 30.8628 27.9787L26.7369 33.9344C26.6701 34.0308 26.56 34.0882 26.4424 34.0882H25.2034C25.029 34.0882 24.9271 33.8918 25.0281 33.7489L26.3128 31.9355L24.9464 27.9255C24.8992 27.7862 25.0021 27.6414 25.1504 27.6414H26.3693C26.5277 27.6414 26.6674 27.7453 26.7131 27.8969L27.4383 30.3188L29.1493 27.7985C29.2163 27.7002 29.3276 27.6414 29.4459 27.6414Z" fill="#253B80"/>
<path fill-rule="evenodd" clip-rule="evenodd" d="M42.8961 32.1699L43.954 25.4386C43.9702 25.3341 44.0608 25.2572 44.166 25.2568H45.357C45.4885 25.2568 45.5895 25.3748 45.5688 25.5052L44.5255 32.1153C44.4983 32.2898 44.3482 32.418 44.1715 32.418H43.1078C42.9763 32.418 42.8753 32.3004 42.8961 32.1699ZM34.7937 25.2572H32.2153C32.0393 25.2572 31.8893 25.3854 31.8617 25.5595L30.8191 32.1699C30.7984 32.3004 30.8994 32.418 31.0311 32.418H32.354C32.477 32.418 32.5821 32.3283 32.6013 32.2062L32.8972 30.3324C32.9244 30.1578 33.0748 30.0298 33.2508 30.0298H34.0664C35.7649 30.0298 36.7447 29.208 37.001 27.5796C37.1166 26.8672 37.0055 26.3075 36.672 25.9153C36.3058 25.485 35.6564 25.2572 34.7937 25.2572ZM35.0911 27.6716C34.9505 28.5966 34.2437 28.5966 33.5599 28.5966H33.1712L33.4446 26.869C33.4608 26.7647 33.5504 26.6877 33.6563 26.6877H33.8346C34.2998 26.6877 34.7394 26.6877 34.9662 26.9531C35.1015 27.1114 35.1427 27.3466 35.0911 27.6716ZM42.4989 27.6419H41.2653C41.1592 27.6419 41.0692 27.7188 41.0533 27.8233L40.9987 28.1685L40.912 28.0435C40.6448 27.6555 40.0493 27.5259 39.4544 27.5259C38.0902 27.5259 36.9254 28.5591 36.6985 30.0085C36.5809 30.7314 36.7479 31.4226 37.158 31.9048C37.5349 32.348 38.0725 32.5328 38.7129 32.5328C39.812 32.5328 40.4215 31.8259 40.4215 31.8259L40.3666 32.1691C40.3458 32.3002 40.4468 32.4178 40.5792 32.4178H41.6907C41.8667 32.4178 42.0167 32.2896 42.0443 32.1152L42.7119 27.89C42.7323 27.76 42.6313 27.6419 42.4989 27.6419ZM40.7782 30.0446C40.6598 30.7498 40.0993 31.2233 39.3853 31.2233C39.0276 31.2233 38.7405 31.1083 38.5564 30.8904C38.374 30.6741 38.3054 30.3661 38.3628 30.0231C38.4746 29.3238 39.0431 28.8351 39.7461 28.8351C40.0967 28.8351 40.3816 28.9514 40.5694 29.1712C40.7582 29.3932 40.8328 29.703 40.7782 30.0446Z" fill="#179BD7"/>
<path d="M25.9465 22.8918L26.2635 20.8789L25.5575 20.8625H22.1865L24.5292 6.0081C24.5364 5.96326 24.5601 5.92144 24.5946 5.89175C24.6292 5.86207 24.6735 5.8457 24.7195 5.8457H30.4035C32.2906 5.8457 33.5928 6.23838 34.2727 7.01342C34.5914 7.37701 34.7944 7.75695 34.8927 8.17508C34.9956 8.61382 34.9975 9.13798 34.8968 9.77729L34.8895 9.82395V10.2336L35.2084 10.4142C35.4768 10.5566 35.69 10.7196 35.8536 10.9062C36.1264 11.2171 36.3028 11.6122 36.3773 12.0806C36.4542 12.5624 36.4287 13.1356 36.3028 13.7846C36.1573 14.5312 35.9222 15.1814 35.6047 15.7135C35.3125 16.2037 34.9404 16.6102 34.4988 16.9254C34.077 17.2248 33.5758 17.452 33.0093 17.5975C32.4601 17.7404 31.8343 17.8126 31.1477 17.8126H30.7053C30.3891 17.8126 30.0817 17.9265 29.8406 18.1308C29.5989 18.3392 29.4387 18.6239 29.3897 18.9355L29.3564 19.1167L28.7964 22.6646L28.771 22.7949C28.7643 22.8362 28.7528 22.8568 28.7359 22.8707C28.7207 22.8833 28.6989 22.8918 28.6777 22.8918H25.9465Z" fill="#253B80"/>
<path d="M35.5096 9.87109C35.4926 9.97956 35.4733 10.0904 35.4515 10.2044C34.7018 14.0529 32.1374 15.3825 28.862 15.3825H27.1944C26.7938 15.3825 26.4563 15.6733 26.3939 16.0684L25.54 21.4835L25.2982 23.0184C25.2576 23.2778 25.4577 23.5117 25.7193 23.5117H28.6772C29.0275 23.5117 29.3249 23.2572 29.38 22.9118L29.4092 22.7614L29.9662 19.2273L30.0019 19.0335C30.0563 18.6869 30.3544 18.4324 30.7047 18.4324H31.1471C34.0127 18.4324 36.2562 17.2689 36.9119 13.9021C37.1857 12.4956 37.0439 11.3212 36.3191 10.4952C36.0999 10.2462 35.8277 10.0395 35.5096 9.87109Z" fill="#179BD7"/>
<path d="M34.7252 9.55909C34.6107 9.52576 34.4925 9.49546 34.3712 9.46819C34.2495 9.44154 34.1246 9.4179 33.9962 9.3973C33.5465 9.32458 33.0539 9.29004 32.526 9.29004H28.0709C27.9612 9.29004 27.8571 9.31488 27.7638 9.35973C27.5583 9.45849 27.4056 9.65302 27.3687 9.89117L26.4208 15.894L26.3936 16.0691C26.456 15.674 26.7935 15.3831 27.194 15.3831H28.8617C32.1371 15.3831 34.7016 14.053 35.4512 10.2051C35.4735 10.0911 35.4923 9.98025 35.5093 9.87178C35.3196 9.77119 35.1142 9.68514 34.893 9.6118C34.8385 9.59363 34.7822 9.57606 34.7252 9.55909Z" fill="#222D65"/>
<path d="M27.3688 9.89101C27.4057 9.65285 27.5586 9.45834 27.7639 9.36017C27.8579 9.31532 27.9615 9.29048 28.071 9.29048H32.5263C33.0542 9.29048 33.5468 9.32502 33.9963 9.39774C34.1249 9.41834 34.2498 9.44198 34.3715 9.46863C34.4927 9.49591 34.6108 9.52621 34.7254 9.55953C34.7823 9.5765 34.8387 9.59407 34.8938 9.61165C35.115 9.68497 35.3205 9.77163 35.5101 9.87162C35.7332 8.44938 35.5083 7.48103 34.7394 6.60417C33.8916 5.63886 32.3615 5.22559 30.4036 5.22559H24.7194C24.3194 5.22559 23.9784 5.51644 23.9165 5.91215L21.549 20.9192C21.5023 21.2161 21.7313 21.484 22.0307 21.484H25.54L26.4211 15.8938L27.3688 9.89101Z" fill="#253B80"/>
<rect x="66" width="56" height="40" rx="4" fill="white"/>
<rect x="66" width="56" height="40" rx="4" stroke="white"/>
<path fill-rule="evenodd" clip-rule="evenodd" d="M79.3539 14.8886C80.106 14.9547 80.8581 14.4921 81.3281 13.9056C81.7903 13.3026 82.0958 12.493 82.0175 11.667C81.3516 11.7 80.529 12.1296 80.059 12.7326C79.6281 13.253 79.2599 14.0956 79.3539 14.8886ZM88.3004 25.5281V12.65H92.8833C95.2492 12.65 96.9021 14.3682 96.9021 16.8794C96.9021 19.3906 95.2178 21.1253 92.8206 21.1253H90.1962V25.5281H88.3004ZM82.0096 15.0456C81.347 15.0053 80.7425 15.2557 80.2542 15.4578C79.9399 15.5879 79.6738 15.6981 79.4714 15.6981C79.2442 15.6981 78.9671 15.5821 78.656 15.4517C78.2483 15.281 77.7823 15.0857 77.2935 15.0951C76.1733 15.1116 75.1313 15.7807 74.5595 16.8463C73.3844 18.9775 74.2539 22.1331 75.3899 23.8678C75.9461 24.7269 76.612 25.6685 77.4894 25.6355C77.8754 25.6201 78.1531 25.4959 78.4404 25.3673C78.7713 25.2193 79.1149 25.0655 79.6516 25.0655C80.1696 25.0655 80.4982 25.2153 80.8137 25.3591C81.1137 25.4958 81.4018 25.627 81.8294 25.619C82.7382 25.6025 83.3101 24.7599 83.8663 23.9008C84.4665 22.9788 84.7303 22.0789 84.7703 21.9423L84.775 21.9265C84.7741 21.9255 84.7666 21.922 84.7536 21.9156C84.5529 21.8188 83.0192 21.0784 83.0045 19.0932C82.9898 17.4269 84.221 16.5826 84.4148 16.4497C84.4266 16.4416 84.4346 16.4362 84.4381 16.4333C83.6547 15.2108 82.4326 15.0786 82.0096 15.0456ZM100.365 25.6272C101.556 25.6272 102.66 24.9911 103.162 23.9833H103.201V25.5281H104.956V19.1179C104.956 17.2593 103.545 16.0615 101.375 16.0615C99.3621 16.0615 97.8736 17.2758 97.8188 18.9444H99.5266C99.6676 18.1514 100.365 17.631 101.321 17.631C102.48 17.631 103.13 18.201 103.13 19.2501V19.9605L100.764 20.1092C98.563 20.2496 97.3722 21.1996 97.3722 22.8517C97.3722 24.5203 98.6022 25.6272 100.365 25.6272ZM100.874 24.0991C99.8634 24.0991 99.221 23.5869 99.221 22.8022C99.221 21.9926 99.8399 21.5218 101.023 21.4474L103.13 21.307V22.0339C103.13 23.24 102.159 24.0991 100.874 24.0991ZM110.776 26.032C110.016 28.2871 109.147 29.0305 107.298 29.0305C107.157 29.0305 106.687 29.014 106.577 28.981V27.4363C106.695 27.4528 106.985 27.4693 107.133 27.4693C107.972 27.4693 108.442 27.0976 108.732 26.1311L108.904 25.5611L105.692 16.1855H107.674L109.907 23.7934H109.946L112.178 16.1855H114.106L110.776 26.032ZM90.1961 14.3351H92.3817C94.0269 14.3351 94.967 15.2603 94.967 16.8876C94.967 18.5149 94.0269 19.4484 92.3739 19.4484H90.1961V14.3351Z" fill="black"/>
<rect x="130" width="57" height="40" rx="4" fill="white"/>
<rect x="130" width="57" height="40" rx="4" stroke="white"/>
<path d="M166.116 8.33301C172.254 8.33323 177.228 13.4841 177.229 19.8379C177.229 26.1918 172.254 31.3425 166.116 31.3428C163.364 31.3428 160.848 30.3049 158.907 28.5898C156.966 30.3048 154.451 31.3427 151.699 31.3428C145.562 31.3428 140.586 26.1919 140.586 19.8379C140.586 13.4839 145.562 8.33301 151.699 8.33301C154.451 8.33308 156.967 9.37033 158.907 11.085C160.848 9.37018 163.365 8.33301 166.116 8.33301Z" fill="#ED0006"/>
<path d="M166.115 8.33301C172.253 8.33301 177.228 13.4839 177.229 19.8379C177.229 26.1919 172.253 31.3428 166.115 31.3428C163.364 31.3427 160.848 30.3048 158.907 28.5898C161.295 26.4796 162.812 23.3431 162.812 19.8379C162.811 16.3324 161.296 13.1952 158.907 11.085C160.848 9.37031 163.364 8.33312 166.115 8.33301Z" fill="#F9A000"/>
<path d="M158.907 11.0859C161.295 13.1961 162.811 16.3327 162.812 19.8379C162.812 23.3431 161.295 26.4796 158.907 28.5898C156.519 26.4796 155.003 23.343 155.003 19.8379C155.003 16.3328 156.519 13.1961 158.907 11.0859Z" fill="#FF5E00"/>
<rect x="195" width="57" height="40" rx="4" fill="white"/>
<rect x="195" width="57" height="40" rx="4" stroke="white"/>
<path fill-rule="evenodd" clip-rule="evenodd" d="M212.304 27.0974H208.85L206.261 16.9876C206.138 16.5226 205.877 16.1114 205.493 15.9177C204.535 15.4307 203.48 15.0432 202.328 14.8477V14.4585H207.891C208.659 14.4585 209.234 15.0432 209.33 15.7222L210.674 23.0147L214.125 14.4585H217.482L212.304 27.0974ZM219.402 27.0974H216.141L218.826 14.4585H222.087L219.402 27.0974ZM226.306 17.9598C226.402 17.2791 226.978 16.8899 227.65 16.8899C228.705 16.7922 229.855 16.9876 230.815 17.4729L231.391 14.7517C230.431 14.3624 229.375 14.167 228.417 14.167C225.252 14.167 222.949 15.9177 222.949 18.3474C222.949 20.1958 224.58 21.1663 225.732 21.751C226.978 22.334 227.458 22.7232 227.362 23.3062C227.362 24.1807 226.402 24.57 225.444 24.57C224.293 24.57 223.141 24.2785 222.087 23.7915L221.511 26.5144C222.663 26.9997 223.909 27.1951 225.06 27.1951C228.609 27.2912 230.815 25.5422 230.815 22.917C230.815 19.6111 226.306 19.4173 226.306 17.9598ZM242.228 27.0974L239.639 14.4585H236.857C236.282 14.4585 235.706 14.8477 235.514 15.4307L230.719 27.0974H234.076L234.746 25.2507H238.871L239.255 27.0974H242.228ZM237.337 17.8621L238.295 22.6255H235.61L237.337 17.8621Z" fill="#172B85"/>
<rect y="48" width="57" height="40" rx="4" fill="#FEB4C7"/>
<rect y="48" width="57" height="40" rx="4" stroke="white"/>
<path d="M22.8682 66.0752C23.6373 66.0753 24.3505 66.324 24.9414 66.748V66.2783H27.0342V73.6299H24.9414V73.1602C24.3505 73.5841 23.6373 73.8329 22.8682 73.833C20.8319 73.833 19.1807 72.0965 19.1807 69.9541C19.1807 67.8117 20.8319 66.0752 22.8682 66.0752ZM44.9385 66.0752C45.7079 66.0752 46.4217 66.3239 47.0127 66.748V66.2783H49.1045V73.6299H47.0127V73.1602C46.4217 73.5842 45.708 73.833 44.9385 73.833C42.9023 73.8329 41.252 72.0965 41.252 69.9541C41.252 67.8117 42.9023 66.0753 44.9385 66.0752ZM51.3252 71.0225C52.0502 71.0225 52.6377 71.6404 52.6377 72.4033C52.6377 73.166 52.0502 73.7842 51.3252 73.7842C50.6002 73.7842 50.0127 73.166 50.0127 72.4033C50.0127 71.6404 50.6002 71.0225 51.3252 71.0225ZM8.83398 63V73.6328H6.51465V63H8.83398ZM14.624 63C14.624 65.3019 13.7721 67.4435 12.2529 69.0352L15.458 73.6328H12.5938L9.11035 68.6357L10.0098 67.9277C11.5005 66.7528 12.3555 64.9567 12.3555 63H14.624ZM18.3242 73.6299H16.1338V63.002H18.3242V73.6299ZM30.2705 67.2354C30.6899 66.6612 31.471 66.2783 32.3203 66.2783V68.418C32.312 68.4179 32.3042 68.417 32.2959 68.417C31.4682 68.417 30.2744 69.0393 30.2744 70.1973V73.6299H28.1279V66.2783H30.2705V67.2354ZM37.5342 66.0811C39.2195 66.0811 40.5127 67.2443 40.5127 68.9551V73.6299H38.4229V69.751C38.4227 68.679 37.8939 68.1016 36.9746 68.1016C36.1168 68.1016 35.4043 68.6487 35.4043 69.7666V73.6299H33.2959V66.2783H35.3789V67.1064C35.9077 66.3535 36.6986 66.0811 37.5342 66.0811ZM23.04 68.0635C21.9933 68.0635 21.1437 68.9096 21.1436 69.9541C21.1436 70.9987 21.9932 71.8457 23.04 71.8457C24.0868 71.8455 24.9355 70.9986 24.9355 69.9541C24.9354 68.9097 24.0867 68.0637 23.04 68.0635ZM45.1104 68.0635C44.0635 68.0635 43.215 68.9096 43.2148 69.9541C43.2148 70.9987 44.0634 71.8457 45.1104 71.8457C46.1573 71.8457 47.0059 70.9987 47.0059 69.9541C47.0057 68.9096 46.1572 68.0635 45.1104 68.0635Z" fill="#17120F"/>
<rect x="65" y="48" width="57" height="40" rx="4" fill="#1F72CD"/>
<rect x="65" y="48" width="57" height="40" rx="4" stroke="white"/>
<path fill-rule="evenodd" clip-rule="evenodd" d="M75.8809 62.167L70.7002 74.2449H76.9022L77.671 72.3192H79.4285L80.1974 74.2449H87.024V72.7751L87.6323 74.2449H91.1636L91.7719 72.7441V74.2449H105.969L107.696 72.3692L109.312 74.2449L116.604 74.2604L111.407 68.2397L116.604 62.167H109.425L107.745 64.008L106.179 62.167H90.7342L89.4079 65.2844L88.0505 62.167H81.8615V63.5868L81.173 62.167H75.8809ZM97.082 63.8821H105.235L107.729 66.7197L110.302 63.8821H112.796L109.007 68.238L112.796 72.5437H110.189L107.696 69.6731L105.109 72.5437H97.082V63.8821ZM99.0953 67.2586V65.6765V65.675H104.182L106.402 68.2052L104.084 70.7492H99.0953V69.022H103.543V67.2586H99.0953ZM77.0809 63.8821H80.104L83.5404 72.0722V63.8821H86.8521L89.5063 69.7543L91.9524 63.8821H95.2476V72.5488H93.2425L93.2262 65.7576L90.303 72.5488H88.5094L85.5699 65.7576V72.5488H81.4451L80.6631 70.6058H76.4383L75.6579 72.5471H73.4479L77.0809 63.8821ZM77.1597 68.8097L78.5516 65.3484L79.9418 68.8097H77.1597Z" fill="white"/>
<rect x="130" y="48" width="57" height="40" rx="4" fill="white"/>
<rect x="130" y="48" width="57" height="40" rx="4" stroke="white"/>
<path d="M147.634 56.3359H156.617C157.871 56.3359 158.651 57.3819 158.358 58.6694L154.176 77.045C153.881 78.3281 152.625 79.3749 151.371 79.3749H142.389C141.136 79.3749 140.355 78.3281 140.647 77.045L144.831 58.6694C145.124 57.3819 146.379 56.3359 147.634 56.3359Z" fill="#E21836"/>
<path d="M155.869 56.333H166.199C167.453 56.333 166.887 57.379 166.592 58.6665L162.411 77.0421C162.117 78.3251 162.209 79.372 160.953 79.372H150.623C149.366 79.372 148.589 78.3251 148.884 77.0421L153.065 58.6665C153.362 57.379 154.614 56.333 155.869 56.333Z" fill="#00447C"/>
<path d="M165.789 56.333H174.772C176.028 56.333 176.808 57.379 176.513 58.6665L172.331 77.0421C172.036 78.3251 170.78 79.372 169.524 79.372H160.546C159.289 79.372 158.51 78.3251 158.804 77.0421L162.986 58.6665C163.279 57.379 164.533 56.333 165.789 56.333Z" fill="#007B84"/>
<path d="M149.979 62.2219C149.056 62.2315 148.783 62.2219 148.696 62.2008C148.662 62.3637 148.039 65.3065 148.037 65.3089C147.903 65.9043 147.805 66.3287 147.473 66.6027C147.285 66.762 147.065 66.8389 146.811 66.8389C146.401 66.8389 146.162 66.6307 146.122 66.2359L146.114 66.1003C146.114 66.1003 146.239 65.3029 146.239 65.2984C146.239 65.2984 146.893 62.6167 147.011 62.2622C147.017 62.2421 147.019 62.2315 147.02 62.2219C145.747 62.2333 145.521 62.2219 145.505 62.2008C145.497 62.2297 145.465 62.396 145.465 62.396L144.797 65.4185L144.74 65.6748L144.629 66.5133C144.629 66.762 144.677 66.965 144.772 67.1367C145.076 67.6809 145.944 67.7625 146.435 67.7625C147.068 67.7625 147.662 67.6249 148.063 67.3737C148.759 66.9527 148.941 66.2946 149.104 65.7098L149.179 65.4098C149.179 65.4098 149.853 62.6246 149.967 62.2622C149.972 62.2421 149.973 62.2315 149.979 62.2219ZM152.272 64.4687C152.11 64.4687 151.813 64.5091 151.546 64.6429C151.45 64.6937 151.358 64.7524 151.261 64.8109L151.349 64.4889L151.301 64.4347C150.735 64.5519 150.609 64.5676 150.086 64.6429L150.043 64.6727C149.982 65.1873 149.928 65.5743 149.703 66.586C149.618 66.9588 149.529 67.3353 149.44 67.7072L149.464 67.7545C149.999 67.7256 150.161 67.7256 150.627 67.7335L150.664 67.6916C150.724 67.3817 150.731 67.3091 150.862 66.6814C150.924 66.3839 151.052 65.73 151.115 65.4972C151.231 65.4421 151.346 65.3879 151.456 65.3879C151.716 65.3879 151.685 65.6207 151.675 65.7135C151.663 65.8692 151.568 66.3778 151.471 66.8145L151.406 67.0964C151.361 67.3046 151.311 67.5069 151.266 67.7133L151.285 67.7545C151.813 67.7256 151.974 67.7256 152.425 67.7335L152.478 67.6916C152.559 67.2076 152.583 67.0781 152.727 66.3733L152.8 66.0496C152.941 65.4159 153.012 65.0946 152.905 64.8329C152.792 64.5396 152.521 64.4687 152.272 64.4687ZM154.834 65.1322C154.553 65.1873 154.375 65.2241 154.197 65.2478C154.02 65.2767 153.849 65.3029 153.578 65.3415L153.556 65.3614L153.536 65.3773C153.508 65.5839 153.488 65.7625 153.451 65.9725C153.419 66.1896 153.37 66.4363 153.291 66.7908C153.229 67.0621 153.198 67.1567 153.163 67.2521C153.128 67.3476 153.091 67.4404 153.022 67.7072L153.038 67.7319L153.051 67.7545C153.305 67.7422 153.47 67.7334 153.641 67.7319C153.811 67.7256 153.987 67.7319 154.26 67.7334L154.284 67.7135L154.31 67.6915C154.349 67.4509 154.355 67.3861 154.379 67.2687C154.403 67.1428 154.444 66.9685 154.545 66.5028C154.593 66.2841 154.646 66.0661 154.695 65.843C154.747 65.6207 154.801 65.4018 154.852 65.1831L154.844 65.1566L154.834 65.1322ZM154.84 64.2377C154.585 64.0837 154.138 64.1326 153.837 64.3452C153.536 64.5536 153.502 64.8494 153.756 65.0053C154.007 65.155 154.456 65.1104 154.754 64.896C155.054 64.6831 155.091 64.39 154.84 64.2377ZM156.381 67.8027C156.897 67.8027 157.425 67.6573 157.823 67.2258C158.129 66.8758 158.27 66.355 158.318 66.1406C158.477 65.4298 158.353 65.098 158.198 64.8959C157.963 64.5878 157.548 64.489 157.117 64.489C156.857 64.489 156.24 64.5152 155.758 64.9703C155.411 65.2985 155.251 65.744 155.155 66.1711C155.057 66.6062 154.945 67.3896 155.649 67.6811C155.866 67.7765 156.179 67.8027 156.381 67.8027ZM156.341 66.2035C156.46 65.6653 156.6 65.2136 156.958 65.2136C157.239 65.2136 157.259 65.5497 157.135 66.0897C157.112 66.2096 157.01 66.6553 156.871 66.8451C156.774 66.9851 156.66 67.07 156.533 67.07C156.496 67.07 156.272 67.07 156.268 66.7297C156.266 66.5616 156.3 66.39 156.341 66.2035ZM159.607 67.7335L159.647 67.6916C159.705 67.3817 159.714 67.3089 159.841 66.6815C159.904 66.3839 160.035 65.7301 160.096 65.4973C160.213 65.442 160.326 65.3877 160.439 65.3877C160.698 65.3877 160.666 65.6205 160.656 65.7133C160.646 65.8693 160.551 66.3777 160.452 66.8144L160.391 67.0963C160.343 67.3047 160.292 67.5068 160.247 67.7134L160.267 67.7546C160.796 67.7257 160.951 67.7257 161.404 67.7335L161.459 67.6916C161.538 67.2074 161.56 67.0779 161.709 66.3734L161.78 66.0494C161.921 65.4157 161.993 65.0946 161.888 64.8329C161.772 64.5396 161.499 64.4688 161.254 64.4688C161.091 64.4688 160.793 64.5089 160.527 64.6429C160.433 64.6938 160.338 64.7523 160.244 64.811L160.326 64.489L160.282 64.4345C159.717 64.5519 159.587 64.5676 159.066 64.6429L159.026 64.6727C158.962 65.1874 158.911 65.5742 158.686 66.5861C158.6 66.9589 158.512 67.3354 158.423 67.7073L158.447 67.7546C158.983 67.7257 159.143 67.7257 159.607 67.7335ZM163.497 67.7545C163.53 67.5882 163.728 66.6028 163.73 66.6028C163.73 66.6028 163.898 65.8797 163.908 65.8535C163.908 65.8535 163.961 65.7782 164.014 65.7484H164.092C164.828 65.7484 165.658 65.7484 166.309 65.2583C166.752 64.9222 167.055 64.4259 167.19 63.8227C167.225 63.6748 167.251 63.4989 167.251 63.323C167.251 63.092 167.205 62.8635 167.075 62.6849C166.743 62.2096 166.082 62.2009 165.319 62.1973C165.316 62.1973 164.942 62.2009 164.942 62.2009C163.966 62.2132 163.574 62.2096 163.413 62.1895C163.399 62.2623 163.374 62.3918 163.374 62.3918C163.374 62.3918 163.024 64.0513 163.024 64.0539C163.024 64.0539 162.187 67.5822 162.147 67.7484C163 67.7379 163.35 67.7379 163.497 67.7545ZM164.145 64.8066C164.145 64.8066 164.517 63.1505 164.515 63.1568L164.528 63.0718L164.533 63.0071L164.681 63.0228C164.681 63.0228 165.449 63.0902 165.467 63.092C165.769 63.2119 165.894 63.5209 165.807 63.9242C165.728 64.2928 165.494 64.6027 165.194 64.7524C164.947 64.8792 164.644 64.8897 164.332 64.8897H164.13L164.145 64.8066ZM166.461 66.2342C166.363 66.6631 166.25 67.4464 166.95 67.7256C167.174 67.8229 167.374 67.8518 167.577 67.8413C167.792 67.8294 167.991 67.7191 168.176 67.5605C168.159 67.6257 168.142 67.6909 168.126 67.7563L168.157 67.7982C168.661 67.7765 168.817 67.7765 169.363 67.7808L169.413 67.7422C169.492 67.2627 169.568 66.7971 169.775 65.8797C169.876 65.4403 169.976 65.0052 170.08 64.5676L170.064 64.5194C169.5 64.6263 169.35 64.6491 168.807 64.7278L168.766 64.7621C168.761 64.8067 168.755 64.8495 168.75 64.8923C168.666 64.7529 168.543 64.6339 168.355 64.5597C168.114 64.4627 167.548 64.5878 167.061 65.0413C166.719 65.3651 166.555 65.8087 166.461 66.2342ZM167.645 66.2604C167.766 65.7319 167.904 65.2846 168.263 65.2846C168.49 65.2846 168.61 65.499 168.586 65.8647C168.566 65.9559 168.546 66.0521 168.521 66.1607C168.485 66.3178 168.446 66.4735 168.408 66.6295C168.369 66.7361 168.325 66.8368 168.275 66.9037C168.183 67.0377 167.963 67.1209 167.837 67.1209C167.801 67.1209 167.579 67.1209 167.571 66.7866C167.57 66.6201 167.603 66.4487 167.645 66.2604ZM173.826 64.5151L173.782 64.4643C173.225 64.5799 173.124 64.5983 172.612 64.6691L172.574 64.7076C172.572 64.7139 172.571 64.7235 172.568 64.7323L172.566 64.7235C172.185 65.6241 172.196 65.4298 171.885 66.1387C171.884 66.1065 171.884 66.0863 171.882 66.052L171.804 64.5151L171.755 64.4643C171.171 64.5799 171.157 64.5983 170.618 64.6691L170.576 64.7076C170.57 64.726 170.57 64.7461 170.567 64.7681L170.57 64.7759C170.637 65.1286 170.621 65.05 170.689 65.6066C170.72 65.8797 170.763 66.1544 170.794 66.4242C170.847 66.8757 170.877 67.098 170.942 67.787C170.578 68.4023 170.491 68.6351 170.141 69.1751L170.143 69.1805L169.896 69.5803C169.868 69.6224 169.842 69.6513 169.806 69.6636C169.767 69.6835 169.716 69.6871 169.645 69.6871H169.508L169.304 70.3795L170.002 70.3918C170.412 70.39 170.669 70.194 170.808 69.9305L171.247 69.161H171.24L171.286 69.1068C171.581 68.4565 173.826 64.5151 173.826 64.5151ZM166.461 73.6085H166.165L167.261 69.8999H167.624L167.74 69.5178L167.751 69.9427C167.737 70.2053 167.939 70.4381 168.47 70.3996H169.083L169.294 69.6855H169.063C168.93 69.6855 168.869 69.6512 168.877 69.5777L168.865 69.1454H167.73V69.1477C167.363 69.1555 166.266 69.1838 166.044 69.2443C165.775 69.3151 165.492 69.5235 165.492 69.5235L165.603 69.141H164.541L164.32 69.8999L163.209 73.6652H162.994L162.783 74.3741H164.899L164.828 74.6105H165.87L165.94 74.3741H166.232L166.461 73.6085ZM165.593 70.6534C165.423 70.7016 165.106 70.8477 165.106 70.8477L165.388 69.8999H166.232L166.028 70.5905C166.028 70.5905 165.768 70.6062 165.593 70.6534ZM165.609 72.0075C165.609 72.0075 165.344 72.0416 165.17 72.0819C164.998 72.1352 164.676 72.3033 164.676 72.3033L164.966 71.3169H165.815L165.609 72.0075ZM165.136 73.6172H164.29L164.535 72.7848H165.379L165.136 73.6172ZM167.175 71.3169H168.396L168.221 71.8982H166.984L166.798 72.5336H167.88L167.061 73.7143C167.004 73.801 166.952 73.8317 166.895 73.8561C166.838 73.8859 166.762 73.9208 166.675 73.9208H166.375L166.169 74.6168H166.954C167.362 74.6168 167.603 74.4268 167.781 74.1774L168.343 73.3905L168.464 74.1895C168.489 74.3392 168.594 74.4268 168.665 74.4609C168.744 74.5012 168.825 74.5704 168.94 74.5807C169.063 74.5861 169.152 74.5904 169.211 74.5904H169.597L169.828 73.8115H169.676C169.589 73.8115 169.439 73.7965 169.413 73.7685C169.387 73.7344 169.387 73.682 169.373 73.6022L169.251 72.8014H168.75L168.97 72.5336H170.204L170.394 71.8982H169.251L169.429 71.3169H170.568L170.78 70.6001H167.383L167.175 71.3169ZM156.868 73.7791L157.153 72.8093H158.323L158.537 72.088H157.365L157.544 71.4911H158.689L158.902 70.7927H156.036L155.829 71.4911H156.48L156.306 72.088H155.653L155.437 72.8216H156.088L155.708 74.1046C155.657 74.2745 155.732 74.3393 155.78 74.4181C155.829 74.495 155.878 74.5458 155.989 74.5747C156.104 74.601 156.183 74.6166 156.289 74.6166H157.609L157.844 73.8176L157.259 73.8998C157.146 73.8998 156.834 73.886 156.868 73.7791ZM157.002 69.1366L156.705 69.6853C156.642 69.8052 156.585 69.8796 156.533 69.9139C156.488 69.9428 156.398 69.9549 156.268 69.9549H156.113L155.906 70.6569H156.42C156.668 70.6569 156.857 70.5641 156.948 70.5178C157.046 70.4644 157.071 70.4949 157.147 70.4205L157.32 70.2666H158.925L159.139 69.5357H157.963L158.169 69.1366H157.002ZM159.372 73.7932C159.345 73.7528 159.364 73.6818 159.406 73.5339L159.845 72.0477H161.406C161.633 72.0443 161.798 72.0416 161.904 72.0338C162.019 72.0214 162.144 71.9795 162.28 71.9043C162.42 71.8254 162.492 71.7422 162.553 71.6468C162.62 71.5516 162.729 71.3432 162.822 71.0219L163.374 69.141L161.754 69.1506C161.754 69.1506 161.255 69.2259 161.036 69.3091C160.814 69.4018 160.497 69.6609 160.497 69.6609L160.644 69.1453H159.643L158.242 73.8998C158.193 74.0845 158.159 74.2185 158.152 74.2989C158.149 74.3856 158.258 74.4714 158.329 74.5362C158.413 74.6009 158.537 74.5904 158.656 74.6009C158.781 74.6106 158.959 74.6166 159.204 74.6166H159.973L160.209 73.801L159.521 73.8676C159.447 73.8676 159.394 73.8272 159.372 73.7932ZM160.128 71.0438H161.768L161.663 71.3781C161.649 71.386 161.614 71.3616 161.447 71.3817H160.027L160.128 71.0438ZM160.456 69.9226H162.11L161.991 70.3252C161.991 70.3252 161.212 70.3174 161.087 70.3409C160.538 70.4382 160.217 70.7384 160.217 70.7384L160.456 69.9226ZM161.7 72.4977C161.686 72.5476 161.665 72.5781 161.635 72.601C161.602 72.6229 161.548 72.6308 161.467 72.6308H161.234L161.248 72.2236H160.276L160.237 74.214C160.235 74.3577 160.249 74.4408 160.351 74.5073C160.454 74.5905 160.77 74.601 161.196 74.601H161.805L162.025 73.856L161.495 73.8858L161.319 73.8963C161.294 73.8858 161.272 73.8761 161.246 73.8499C161.224 73.8273 161.186 73.8412 161.192 73.6976L161.196 73.1873L161.752 73.1638C162.052 73.1638 162.181 73.0639 162.29 72.9687C162.395 72.8775 162.429 72.7726 162.468 72.6308L162.561 72.179H161.797L161.7 72.4977Z" fill="#FEFEFE"/>
<rect x="195.5" y="48.5" width="56" height="39" rx="3.5" fill="white" stroke="white"/>
<path d="M224.057 56.2598C233.274 56.2598 236.815 61.4149 236.815 67.9307C236.815 75.7248 231.865 79.6426 224.057 79.6426H210.493V56.2598H224.057ZM211.781 78.3232H224.057C231.462 78.3232 235.487 74.7762 235.487 67.9717C235.487 60.9611 231.14 57.6621 224.057 57.6621H211.781V78.3232ZM217.376 76.5908H213.432V69.415H217.376V76.5908ZM215.403 63.3115C216.759 63.3115 217.858 64.4379 217.858 65.8271C217.858 67.2165 216.759 68.3428 215.403 68.3428C214.047 68.3427 212.948 67.2164 212.948 65.8271C212.948 64.438 214.048 63.3116 215.403 63.3115Z" fill="black"/>
<path fill-rule="evenodd" clip-rule="evenodd" d="M231.02 63.5182H232.147V66.9823H233.797C233.354 60.6726 228.484 59.2705 224.057 59.2705H219.348V63.5182H220.032C221.32 63.5182 222.085 64.3842 222.085 65.8276C222.085 67.2709 221.32 68.137 220.072 68.137H219.348V76.591H224.057C231.261 76.591 233.716 73.1681 233.837 68.137H231.02V63.5182ZM225.586 66.9823V68.137H222.769V63.5182H225.506V64.6729H223.896V65.209H225.425V66.3637H223.936V66.9823H225.586ZM226.069 68.137L227.438 63.5182H229.047L230.416 68.137H229.249L229.007 67.2709H227.518L227.277 68.137H226.069ZM227.853 66.0749H227.84V66.1162L227.853 66.0749ZM227.853 66.0749H228.645L228.283 64.7965H228.243L227.853 66.0749ZM219.348 66.9822V64.6728H220.032C220.475 64.6728 220.958 64.7965 220.958 65.8275C220.958 66.8585 220.515 66.9822 220.032 66.9822H219.348Z" fill="#D50072"/>
</svg>
