<svg width="280" height="64" viewBox="0 0 280 64" fill="none" xmlns="http://www.w3.org/2000/svg">
<rect width="64" height="64" rx="32" fill="#191919"/>
<path d="M36.5542 21.0291C37.4107 20.9996 38.2643 21.1448 39.0628 21.4561C39.8614 21.7673 40.5881 22.238 41.1987 22.8394C41.7873 23.45 42.2475 24.1724 42.5522 24.9638C42.8568 25.7553 42.9997 26.5998 42.9724 27.4474V36.5537C42.9724 38.4554 42.3507 40.092 41.1622 41.244C39.9013 42.4081 38.2327 43.0289 36.5176 42.972H27.4844C25.7836 43.0247 24.1308 42.4037 22.8856 41.244C22.2683 40.6257 21.7849 39.887 21.4656 39.0737C21.1463 38.2605 20.9979 37.3902 21.0296 36.5171V27.4474C21.0296 23.5891 23.5896 21.0291 27.4479 21.0291H36.5542ZM36.5999 23.068H27.4844C26.1587 23.068 25.0159 23.4611 24.257 24.2109C23.8515 24.6428 23.5373 25.152 23.3331 25.7081C23.1288 26.2642 23.0388 26.8558 23.0684 27.4474V36.5171C23.0684 37.8886 23.4616 38.9857 24.257 39.7903C25.1442 40.5749 26.3012 40.9847 27.4844 40.9331H36.5176C37.7008 40.9847 38.8579 40.5749 39.745 39.7903C40.1709 39.3689 40.5046 38.8636 40.725 38.3065C40.9453 37.7493 41.0475 37.1524 41.025 36.5537V27.4474C41.0545 26.2704 40.6287 25.1275 39.8364 24.2566C39.4045 23.8511 38.8953 23.5368 38.3392 23.3326C37.7831 23.1284 37.1915 23.0384 36.5999 23.068ZM32.001 26.2954C35.1004 26.2954 37.6696 28.8554 37.6696 31.964C37.6696 33.4674 37.0724 34.9092 36.0093 35.9723C34.9462 37.0354 33.5044 37.6326 32.001 37.6326C30.4976 37.6326 29.0558 37.0354 27.9927 35.9723C26.9297 34.9092 26.3324 33.4674 26.3324 31.964C26.3324 30.4606 26.9297 29.0188 27.9927 27.9557C29.0558 26.8927 30.4976 26.2954 32.001 26.2954ZM32.001 28.3251C31.0398 28.33 30.1194 28.7139 29.4397 29.3936C28.7601 30.0732 28.3761 30.9937 28.3713 31.9549C28.3761 32.916 28.7601 33.8365 29.4397 34.5161C30.1194 35.1958 31.0398 35.5798 32.001 35.5846C32.9622 35.5798 33.8826 35.1958 34.5623 34.5161C35.242 33.8365 35.6259 32.916 35.6307 31.9549C35.6259 30.9937 35.242 30.0732 34.5623 29.3936C33.8826 28.7139 32.9622 28.33 32.001 28.3251ZM37.889 24.8783C38.2285 24.8783 38.5541 25.0131 38.7941 25.2532C39.0342 25.4932 39.169 25.8188 39.169 26.1583C39.169 26.4978 39.0342 26.8233 38.7941 27.0634C38.5541 27.3034 38.2285 27.4383 37.889 27.4383C37.5495 27.4383 37.224 27.3034 36.9839 27.0634C36.7439 26.8233 36.609 26.4978 36.609 26.1583C36.609 25.8188 36.7439 25.4932 36.9839 25.2532C37.224 25.0131 37.5495 24.8783 37.889 24.8783Z" fill="white"/>
<rect x="72" width="64" height="64" rx="32" fill="#191919"/>
<path d="M110.956 27.1285C110.041 26.9327 109.212 26.4496 108.59 25.7496C107.968 25.0497 107.587 24.1694 107.5 23.2373V22.833H104.342V35.3657C104.34 35.9205 104.165 36.4608 103.84 36.9106C103.515 37.3604 103.057 37.6971 102.531 37.8734C102.005 38.0497 101.437 38.0567 100.907 37.8935C100.376 37.7303 99.9107 37.405 99.5748 36.9634C99.2337 36.5144 99.0444 35.9684 99.0346 35.4046C99.0247 34.8409 99.1946 34.2886 99.5197 33.8279C99.8449 33.3672 100.308 33.022 100.843 32.8425C101.377 32.6629 101.955 32.6583 102.493 32.8293V29.6209C101.294 29.4553 100.074 29.6683 99.0031 30.2302C97.9319 30.7921 97.0631 31.6748 96.5183 32.7547C95.9735 33.8347 95.7798 35.0579 95.9645 36.2534C96.1491 37.4488 96.7028 38.5567 97.548 39.4219C98.3541 40.2467 99.3877 40.8126 100.517 41.0473C101.646 41.282 102.819 41.1749 103.887 40.7398C104.955 40.3046 105.869 39.561 106.513 38.604C107.156 37.6469 107.5 36.5199 107.5 35.3666V28.9628C108.777 29.8751 110.307 30.3644 111.876 30.3616V27.2238C111.567 27.2242 111.258 27.1923 110.956 27.1285Z" fill="white"/>
<rect x="144" width="64" height="64" rx="32" fill="#191919"/>
<g clip-path="url(#clip0_0_27)">
<path d="M181.485 21.9469L178.639 21.9424C175.443 21.9424 173.377 24.062 173.377 27.3425V29.8324H170.516C170.269 29.8324 170.068 30.0328 170.068 30.28V33.8875C170.068 34.1348 170.269 34.335 170.516 34.335H173.377V43.4378C173.377 43.685 173.577 43.8852 173.824 43.8852H177.557C177.804 43.8852 178.004 43.6848 178.004 43.4378V34.335H181.35C181.597 34.335 181.797 34.1348 181.797 33.8875L181.798 30.28C181.798 30.1613 181.751 30.0477 181.667 29.9636C181.584 29.8796 181.469 29.8324 181.351 29.8324H178.004V27.7217C178.004 26.7072 178.246 26.1923 179.568 26.1923L181.484 26.1916C181.731 26.1916 181.932 25.9911 181.932 25.7441V22.3944C181.932 22.1476 181.732 21.9474 181.485 21.9469Z" fill="white"/>
</g>
<rect x="216" width="64" height="64" rx="32" fill="#191919"/>
<path d="M240.197 22.1426C238.688 22.1426 237.702 23.1331 237.702 24.435C237.702 25.7082 238.659 26.727 240.139 26.727H240.168C241.706 26.727 242.663 25.7082 242.663 24.435C242.634 23.1331 241.706 22.1426 240.197 22.1426Z" fill="white"/>
<path d="M237.965 28.5391H242.375V41.8063H237.965V28.5391Z" fill="white"/>
<path d="M253.199 28.2266C250.82 28.2266 249.224 30.462 249.224 30.462V28.5379H244.814V41.8052H249.224V34.3962C249.224 33.9996 249.253 33.6036 249.369 33.32C249.688 32.5279 250.414 31.7074 251.632 31.7074C253.228 31.7074 253.866 32.9241 253.866 34.7076V41.8052H258.275V34.198C258.275 30.1229 256.1 28.2266 253.199 28.2266Z" fill="white"/>
<defs>
<clipPath id="clip0_0_27">
<rect width="21.9429" height="21.9429" fill="white" transform="translate(165.028 21.9424)"/>
</clipPath>
</defs>
</svg>
