<svg width="128" height="56" viewBox="0 0 128 56" fill="none" xmlns="http://www.w3.org/2000/svg">
<path d="M0 28C0 12.536 12.536 0 28 0C43.464 0 56 12.536 56 28C56 43.464 43.464 56 28 56C12.536 56 0 43.464 0 28Z" fill="#F4F4F4"/>
<path d="M31.7049 23.41L30.2949 22L24.2949 28L30.2949 34L31.7049 32.59L27.1249 28L31.7049 23.41Z" fill="#191919"/>
<path d="M72 28C72 12.536 84.536 0 100 0C115.464 0 128 12.536 128 28C128 43.464 115.464 56 100 56C84.536 56 72 43.464 72 28Z" fill="#F4F4F4"/>
<path d="M97.7049 22L96.2949 23.41L100.875 28L96.2949 32.59L97.7049 34L103.705 28L97.7049 22Z" fill="#191919"/>
</svg>
