<svg width="138" height="49" viewBox="0 0 138 49" fill="none" xmlns="http://www.w3.org/2000/svg">
<path d="M15.4977 6.74252L26.2568 26.3247C27.798 29.3011 29.0791 31.8729 30.0712 33.8089C29.9749 31.0349 29.9267 28.1067 29.9267 24.8317V6.74252H36.4188V42.1408H27.692L17.7324 24.3405C15.9023 20.5743 14.1107 17.4535 13.0704 15.3152C13.1667 17.9929 13.1667 21.7591 13.1667 24.9859V42.1408H6.67464V6.74252H15.4977Z" fill="white"/>
<path d="M41.2256 16.5096H47.5732V30.6399C47.5732 34.358 48.6135 37.2861 52.2352 37.2861C55.7027 37.2861 57.9856 34.2616 57.9856 28.02V16.5096H64.3813V42.1408H58.1397V37.7292C56.7527 40.7056 54.4217 42.8343 50.4532 42.8343C43.8648 42.8343 41.2352 38.4709 41.2352 32.1811V16.5096H41.2256Z" fill="white"/>
<path d="M68.9185 16.5095H75.1602V20.7188C75.95 18.2915 78.3291 15.8064 82.0472 15.8064C85.5147 15.8064 87.8939 17.2898 89.1846 20.6129C90.6198 17.5402 92.604 15.8064 96.322 15.8064C102.766 15.8064 105.935 20.1698 105.935 26.4596V42.1215H99.6355V28.0104C99.6355 24.2923 98.6434 21.3642 95.4744 21.3642C92.4981 21.3642 90.5716 24.5331 90.5716 29.8886V42.1311H84.4263V28.0104C84.4263 24.2923 83.7809 21.3642 80.2652 21.3642C76.2967 21.3642 75.3046 25.6312 75.3046 30.6303V42.1311H68.9089V16.5095H68.9185Z" fill="white"/>
<path d="M121.009 15.7197C129.042 15.7197 132.018 20.3335 132.018 26.6233V35.8895C132.018 37.8737 132.163 40.5033 132.509 42.1311H126.114C125.969 41.2931 125.911 40.3492 125.911 39.5015V38.2108H125.863C124.823 40.2432 122.694 42.8246 117.83 42.8246C112.224 42.8246 108.853 39.4534 108.853 35.1382C108.853 28.0971 117.281 27.4035 120.845 26.8641C124.168 26.3729 125.757 25.872 125.757 23.6952C125.757 21.6628 123.975 20.4684 121.047 20.4684C118.524 20.4684 116.636 21.9517 115.99 24.3309H109.989C110.75 20.1312 114.266 15.7197 121.009 15.7197ZM119.573 38.1241C122.848 38.1241 125.873 36.1881 125.873 30.245V28.0682C125.276 29.3107 123.937 30.4473 120.171 31.189C116.751 31.8825 115.21 32.9228 115.21 34.8588C115.21 36.6793 116.693 38.1241 119.573 38.1241Z" fill="white"/>
</svg>
